<?xml version="1.0" encoding="UTF-8"?>
<svg version="1.1" xmlns="http://www.w3.org/2000/svg" width="1700" height="1700">
<path d="M0 0 C-1.50949219 1.26457031 -3.01898437 2.52914063 -4.57421875 3.83203125 C-12.82690907 9.18499208 -21.48369199 11.85374695 -30.8125 14.6875 C-34.68185291 15.90220125 -38.55032718 17.11970451 -42.41796875 18.33984375 C-44.35978027 18.94812012 -46.3015918 19.55639648 -48.30224609 20.18310547 C-56.79503239 22.89127736 -65.20773615 25.81720717 -73.625 28.75 C-90.62943094 34.6055007 -107.76502969 39.87180331 -125 45 C-129.50152126 46.39091949 -134.0016204 47.78645337 -138.5 49.1875 C-171.12155517 59.22182641 -204.24919012 68.06530385 -237.55078125 75.546875 C-245.27665961 77.28765438 -252.98103475 79.11274275 -260.6875 80.9375 C-271.42198964 83.47282955 -282.16749038 85.93307927 -292.9375 88.3125 C-346.32254129 100.31866451 -517.38247923 146.30134276 -358.7265625 184.546875 C-329.09162939 192.06678981 -307.0091869 206.2778398 -284 226 C-248.77346576 254.18122739 -215.95063713 261.41352447 -171.51953125 261.125 C-167.493993 261.11364014 -167.493993 261.11364014 -163.38713074 261.10205078 C-154.86218647 261.07774884 -146.33738177 261.04049711 -137.8125 261 C-126.56901382 260.94668777 -115.32559668 260.90676274 -104.08203125 260.875 C-101.52016556 260.85840332 -98.95829987 260.84180664 -96.31880188 260.82470703 C-80.30968115 260.78094412 -64.83509725 261.49180839 -49.14453125 264.953125 C-46.62034546 265.50601196 -46.62034546 265.50601196 -44.04516602 266.07006836 C-42.31838623 266.4594458 -40.59160645 266.84882324 -38.8125 267.25 C-37.00128662 267.65549072 -35.19007324 268.06098145 -33.32397461 268.47875977 C-5.36513364 274.79917895 20.21243238 283.53031577 46.375 295.375 C120.43512371 328.36481164 189.4357089 325.64470947 264.33203125 296.88671875 C291.85823298 286.52407836 317.60554067 278.88359155 347.203125 278.8671875 C349.48476563 278.86589844 351.76640625 278.86460937 354.1171875 278.86328125 C357.64792969 278.86908203 357.64792969 278.86908203 361.25 278.875 C363.55742188 278.87113281 365.86484375 278.86726563 368.2421875 278.86328125 C390.07890184 278.8755353 411.60605403 279.54227594 433.3125 282.0625 C459.28685048 284.82762745 485.84333607 287.28202928 511 279 C513.74570313 278.113125 516.49140625 277.22625 519.3203125 276.3125 C525.29811283 274.34499561 531.26771118 272.35229429 537.2265625 270.328125 C538.75708252 269.81878418 540.28760254 269.30944336 541.86450195 268.78466797 C545.6074536 267.48393222 549.31618743 266.08347618 553.00073242 264.62548828 C571.32859283 257.72729962 587.60428996 256.8830664 607.0625 257.375 C609.87072266 257.40722656 612.67894531 257.43945312 615.57226562 257.47265625 C636.9712649 257.76122681 658.41475378 258.24491548 679.75 260 C701.8130788 261.80567397 723.81150314 262.20725478 745.9375 262.25 C749.93520508 262.2809375 749.93520508 262.2809375 754.01367188 262.3125 C822.83204357 262.4477363 879.34503969 230.61354303 930 186 C933.465 183.03 933.465 183.03 937 180 C939.34694383 177.34530412 941.67962061 174.67794605 944 172 C946.71269957 169.31658374 949.44266538 166.65053668 952.1875 164 C973.2758105 142.98504015 988.18546473 117.62255767 966 91 C966 90.34 966 89.68 966 89 C964.68 88.34 963.36 87.68 962 87 C960.54207031 85.78699219 959.08414062 84.57398438 957.58203125 83.32421875 C951.54799417 78.64984573 945.48035238 75.28405984 938.6875 71.8125 C936.42261719 70.64332031 934.15773438 69.47414063 931.82421875 68.26953125 C925.30694068 65.14705744 918.75848608 62.54746144 912 60 C910.185 59.17242188 908.37 58.34484375 906.5 57.4921875 C900.4215083 54.73787095 894.26719727 52.41662704 888 50.125 C874.32426783 45.12439371 874.32426783 45.12439371 868.8984375 43.04296875 C822.83630306 25.4216168 773.14973923 20.44456442 724.375 16.0625 C720.65274445 15.72084211 716.93057748 15.37821798 713.20849609 15.03466797 C705.72599547 14.34520439 698.24310223 13.66030999 690.75976562 12.97998047 C675.04608631 11.55077723 659.33541592 10.08957721 643.625 8.625 C641.02931152 8.386604 638.43362305 8.14820801 635.75927734 7.90258789 C624.13287595 6.82335539 612.56259993 5.64870093 601 4 C598.504375 3.71125 596.00875 3.4225 593.4375 3.125 C515.81316678 -8.61649578 684.14532952 -10.85284991 701 -10 C703.2780957 -9.8875293 705.55619141 -9.77505859 707.90332031 -9.65917969 C799.50100301 -5.08873861 799.50100301 -5.08873861 841.8125 3.5 C845.05114868 4.15367554 845.05114868 4.15367554 848.35522461 4.82055664 C869.43434656 9.15908051 890.22207009 14.4138855 911 20 C914.53115814 20.94175075 918.0624083 21.88315652 921.59375 22.82421875 C928.49749708 24.66846699 935.39822194 26.52351097 942.296875 28.38671875 C951.12681636 30.76996761 959.9679757 33.10888948 968.8125 35.4375 C982.18017609 38.97170252 995.53195208 42.56162913 1008.875 46.1875 C1010.67428955 46.67468506 1012.4735791 47.16187012 1014.32739258 47.66381836 C1026.27933243 50.92113155 1038.14685867 54.3993003 1050 58 C1054.1765625 59.2684375 1054.1765625 59.2684375 1058.4375 60.5625 C1187.29157314 102.09397812 1134.62535472 187.48571993 1038.5 222.625 C1005.81878204 234.68388304 973.40888597 246.88421179 943 264 C941.21722656 264.96292969 939.43445312 265.92585938 937.59765625 266.91796875 C924.86789591 273.92688773 912.51560684 281.64324608 900.375 289.625 C853.97920704 319.40140444 802.50258593 333.51053091 748 339 C743.8853125 339.433125 743.8853125 339.433125 739.6875 339.875 C691.52639852 344.58247608 645.18446738 341.46101215 597.375 334.9375 C535.58280991 326.52509323 486.17730195 329.01115383 426 345 C423.54691406 345.65097656 421.09382812 346.30195312 418.56640625 346.97265625 C413.62938554 348.28727849 408.69319161 349.60500945 403.7578125 350.92578125 C389.84600813 354.64540266 375.92339893 358.32405839 362 362 C358.84050781 362.83724609 358.84050781 362.83724609 355.6171875 363.69140625 C324.02446407 372.01328594 292.80076092 379.36513792 260.125 381.625 C258.30613281 381.7590625 256.48726562 381.893125 254.61328125 382.03125 C172.20644383 387.85379511 84.59896776 375.97536776 9.12109375 342.859375 C-52.6625665 316.00111456 -113.70767696 303.22807132 -180.81982422 299.1418457 C-240.11004953 295.43651685 -278.78480387 277.78712367 -327.90234375 245.21875 C-342.61144396 235.73907905 -354.7331817 228.82884918 -372 225.1875 C-373.71171387 224.8169751 -375.42342773 224.4464502 -377.18701172 224.06469727 C-386.47641392 222.07135915 -395.79757849 220.24280739 -405.125 218.4375 C-486 202.55423347 -486 202.55423347 -486 186 C-487.65 185.34 -489.3 184.68 -491 184 C-494.465 180.535 -494.465 180.535 -498 177 C-498.66 176.67 -499.32 176.34 -500 176 C-500 175.34 -500 174.68 -500 174 C-500.66 174 -501.32 174 -502 174 C-505.05431613 170.37845373 -508.05020441 166.70717553 -511 163 C-512.98 160.525 -512.98 160.525 -515 158 C-536.34229699 124.27917075 -505.54377862 104.95233697 -478 90 C-476.185 88.989375 -474.37 87.97875 -472.5 86.9375 C-412.85672414 55.08256857 -339.76624854 41.20040241 -273.125 33.5 C-251.51673754 30.9570429 -231.13499184 26.24655139 -210.375 19.75 C-187.46311068 12.60619041 -164.6235199 6.29237813 -141 2 C-139.08960938 1.64164063 -137.17921875 1.28328125 -135.2109375 0.9140625 C-123.47802187 -1.22065402 -111.75015114 -2.800783 -99.90625 -4.171875 C-75.79050841 -7.06358157 -51.88280666 -10.9433507 -28.01464844 -15.40893555 C-18.16110641 -17.22325927 21.67341967 -17.33873573 0 0 Z " fill="#797A99" transform="translate(542,1061)"/>
<path d="M0 0 C2.63935547 0.04447266 5.27871094 0.08894531 7.99804688 0.13476562 C26.38996954 0.51373936 63.84212913 13.27817612 25.86328125 17.55859375 C23.48761963 17.83614502 21.11195801 18.11369629 18.66430664 18.3996582 C14.87047485 18.82057739 14.87047485 18.82057739 11 19.25 C5.81740976 19.85421537 0.6351164 20.46098263 -4.546875 21.0703125 C-7.07279297 21.36454102 -9.59871094 21.65876953 -12.20117188 21.96191406 C-29.62880493 24.0464332 -47.1287788 26.19711311 -64.3125 29.8125 C-66.81263672 30.31136719 -66.81263672 30.31136719 -69.36328125 30.8203125 C-116.98695471 40.93194621 -168.52328293 68.13538876 -204.3125 100.8125 C-204.9725 100.8125 -205.6325 100.8125 -206.3125 100.8125 C-207.3025 102.7925 -207.3025 102.7925 -208.3125 104.8125 C-210.7875 107.7825 -210.7875 107.7825 -213.3125 110.8125 C-216.71885258 121.03155775 -218.22199003 127.17563747 -211.3125 135.8125 C-211.3125 136.4725 -211.3125 137.1325 -211.3125 137.8125 C-210.3225 138.1425 -209.3325 138.4725 -208.3125 138.8125 C-208.3125 139.4725 -208.3125 140.1325 -208.3125 140.8125 C-206.6625 141.4725 -205.0125 142.1325 -203.3125 142.8125 C-199.3525 144.7925 -199.3525 144.7925 -195.3125 146.8125 C-176.67188243 152.67097981 -156.70534708 153.66367586 -137.26953125 154.1015625 C-110.23536816 154.90024514 -92.24601067 159.53647165 -68.3125 172.8125 C5.80496444 206.79155918 89.54369304 207.25373959 169.0625 195.8125 C194.79277591 192.13067736 220.8206245 189.04005295 246.75 192.125 C249.06644531 192.39570312 251.38289062 192.66640625 253.76953125 192.9453125 C260.16675921 193.74722363 266.55121553 194.61593953 272.9375 195.5 C302.20832859 199.3232112 327.3301838 190.96921949 354.75 181.75 C394.11322781 168.61270518 432.87189771 164.06420056 474.1875 162.3125 C478.55730103 162.12022827 478.55730103 162.12022827 483.01538086 161.92407227 C491.57253482 161.54826805 500.12994973 161.17915665 508.6875 160.8125 C540.3493338 159.46157461 540.3493338 159.46157461 572 157.875 C574.47113281 157.74222656 576.94226562 157.60945313 579.48828125 157.47265625 C654.22743022 150.619202 720.94300735 89.79554013 592.6875 88.3125 C554.89169348 87.87092199 320.24809008 39.24856951 479.875 39.6875 C481.70780518 39.69088379 483.54061035 39.69426758 485.42895508 39.69775391 C528.69512246 39.85297857 843.40069342 44.76395035 743.6875 148.8125 C742.2025 150.7925 742.2025 150.7925 740.6875 152.8125 C740.0275 152.8125 739.3675 152.8125 738.6875 152.8125 C738.6875 153.4725 738.6875 154.1325 738.6875 154.8125 C738.0275 154.8125 737.3675 154.8125 736.6875 154.8125 C736.0275 156.1325 735.3675 157.4525 734.6875 158.8125 C728.26074593 165.45347921 721.70179416 171.80024787 714.6875 177.8125 C712.955 179.42125 711.2225 181.03 709.4375 182.6875 C697.29500488 193.51015869 690.37893198 199.09638 674.125 199.0625 C670.47244141 199.07023437 670.47244141 199.07023437 666.74609375 199.078125 C657.65031754 198.7783127 648.73364625 197.80209032 639.6875 196.8125 C632.65047749 196.23865827 625.60803298 195.76872129 618.5625 195.3125 C615.6073645 195.12022827 615.6073645 195.12022827 612.5925293 194.92407227 C561.912376 191.68683404 511.09827256 189.7410467 460.3125 189.5 C458.39888672 189.48243652 456.48527344 189.46487305 454.51367188 189.44677734 C428.16065065 189.45852949 404.49469005 195.2798881 380.6875 206.6875 C326.1786537 231.02180638 264.42287711 231.99942345 205.8359375 225.25390625 C198.2410483 224.60275111 190.68319015 224.68107987 183.0625 224.6875 C179.99710938 224.68492187 176.93171875 224.68234375 173.7734375 224.6796875 C165.68140145 224.66738888 165.68140145 224.66738888 157.6875 225.8125 C154.67367187 225.94269531 151.65984375 226.07289063 148.5546875 226.20703125 C137.54910109 226.72760656 126.72571863 228.02155873 115.8125 229.5 C113.81904541 229.76474121 111.82559082 230.02948242 109.77172852 230.30224609 C88.4817951 233.17095215 67.2725059 236.55182105 46.08203125 240.078125 C6.57838231 246.21209783 -17.71123021 242.39465592 -50.6640625 220.43359375 C-70.71169596 207.58148018 -88.5343445 205.50045204 -111.7890625 205.65234375 C-113.94521088 205.65754532 -116.10135925 205.66274689 -118.32284546 205.66810608 C-125.19446676 205.68585751 -132.06593638 205.71699375 -138.9375 205.75 C-145.78762571 205.77774796 -152.63772796 205.80248119 -159.48788452 205.82118225 C-163.74085443 205.83329714 -167.99381372 205.85075564 -172.24673462 205.87449646 C-190.24386313 205.93450509 -207.66632786 205.23417194 -225.4375 202.0625 C-228.47195313 201.52109375 -231.50640625 200.9796875 -234.6328125 200.421875 C-245.88660563 198.33521309 -257.11175437 196.16711988 -268.3125 193.8125 C-271.64214844 193.13767578 -271.64214844 193.13767578 -275.0390625 192.44921875 C-311.06264309 184.88141105 -342.96896638 170.93899035 -370.3125 145.8125 C-373.2825 143.3375 -373.2825 143.3375 -376.3125 140.8125 C-407.9613309 106.72914364 -324.67849744 85.38195207 -301.1875 76.625 C-289.04337336 72.08992074 -276.91552133 67.51903177 -264.8125 62.875 C-254.69382154 59.03260651 -244.53138791 55.45763727 -234.2421875 52.1015625 C-228.73174558 50.28131506 -223.24255189 48.4187494 -217.7578125 46.5234375 C-197.39844274 39.48935106 -177.01915547 32.76874813 -156.3125 26.8125 C-153.80914063 26.07644531 -151.30578125 25.34039063 -148.7265625 24.58203125 C-117.02894422 15.41968487 -84.89347979 8.06492957 -52.3125 2.8125 C-50.73202881 2.53672119 -49.15155762 2.26094238 -47.52319336 1.97680664 C-31.62940881 -0.5515329 -16.0566123 -0.39571935 0 0 Z " fill="#797A99" transform="translate(672.3125,1078.1875)"/>
</svg>
