<?xml version="1.0" encoding="UTF-8"?>
<svg version="1.1" xmlns="http://www.w3.org/2000/svg" width="1700" height="1700">
<path d="M0 0 C-1.47726562 1.25425781 -2.95453125 2.50851562 -4.4765625 3.80078125 C-12.79938511 9.81914393 -22.66044158 12.23650166 -32.375 15.1875 C-36.15586878 16.36148157 -39.93323095 17.54631317 -43.7109375 18.73046875 C-45.49443604 19.28694092 -47.27793457 19.84341309 -49.11547852 20.41674805 C-54.22593357 22.07323333 -59.20630114 23.93481156 -64.1953125 25.9206543 C-68.65941144 27.63860184 -73.22550505 28.96417107 -77.8125 30.3125 C-85.86501564 32.7102895 -93.85325592 35.24656124 -101.8125 37.9375 C-120.04412735 44.07274319 -138.34850683 49.76686047 -157.02734375 54.3828125 C-161.93401965 55.64785204 -166.72214098 57.1947043 -171.5390625 58.765625 C-183.69724493 62.64104193 -196.04134576 65.62515908 -208.4375 68.625 C-210.96456227 69.24143734 -213.49157965 69.85805869 -216.01855469 70.47485352 C-233.27721756 74.67420637 -250.57288603 78.69948995 -267.88891602 82.65441895 C-286.44578107 86.89707499 -304.94989516 91.34037066 -323.4375 95.875 C-324.71983521 96.18815155 -326.00217041 96.5013031 -327.32336426 96.82394409 C-342.65001989 100.57087985 -357.86289316 104.53975854 -373 109 C-374.27109619 109.36569092 -375.54219238 109.73138184 -376.85180664 110.1081543 C-433.91657691 126.60135833 -426.86130336 167.72665152 -372.60766602 181.38720703 C-339.87575964 189.64436722 -315.28607829 199.93191914 -289.41796875 222.13671875 C-279.49360433 230.4505006 -269.21924703 238.50133377 -258 245 C-256.86433594 245.66644531 -255.72867187 246.33289062 -254.55859375 247.01953125 C-225.7566358 263.20749301 -192.92716964 262.23495526 -160.83738327 261.98346901 C-157.15808026 261.95617552 -153.47884284 261.9387236 -149.79946899 261.92399597 C-139.3577333 261.88187693 -128.91612752 261.83375032 -118.47460938 261.75317383 C-112.03430633 261.70418106 -105.59417119 261.67553236 -99.1537056 261.65942955 C-96.73243727 261.64966106 -94.31118496 261.63265472 -91.89002609 261.60764503 C-76.38284715 261.45085428 -62.20812288 262.65410371 -47 266 C-44.40430145 266.54654236 -44.40430145 266.54654236 -41.75616455 267.10412598 C-13.8815767 273.01641212 11.99298473 280.87560503 38.09130859 292.36035156 C110.83551889 324.2853756 178.73352971 329.93938626 254 301 C261.31942752 298.29463336 268.65697449 295.64049591 276 293 C277.07862305 292.6095752 278.15724609 292.21915039 279.26855469 291.81689453 C304.40118122 282.75070435 304.40118122 282.75070435 317 281 C318.84437653 280.74345894 318.84437653 280.74345894 320.72601318 280.48173523 C324.70519317 280.03322866 328.53077256 279.86678737 332.53222656 279.85473633 C334.70815399 279.84516655 334.70815399 279.84516655 336.92803955 279.83540344 C338.48319275 279.83429062 340.03834595 279.8331778 341.640625 279.83203125 C343.27199402 279.82870285 344.90336304 279.82537445 346.58416748 279.82194519 C350.04390177 279.81688541 353.50364092 279.81453657 356.96337891 279.81469727 C362.16187043 279.81253663 367.36014048 279.79444255 372.55859375 279.77539062 C396.53413302 279.73497059 420.08794547 280.75773757 443.90625 283.55859375 C455.87982906 284.84963806 467.96215183 285.41806623 480 285 C481.29292969 284.95617188 482.58585937 284.91234375 483.91796875 284.8671875 C511.16887157 282.89358451 538.36288707 270.22291214 563.90185547 261.36938477 C565.25424316 260.91748779 566.60663086 260.46559082 568 260 C569.09328613 259.61408691 570.18657227 259.22817383 571.31298828 258.83056641 C576.41523334 257.68119297 581.42482022 257.73483087 586.625 257.76953125 C587.75188736 257.76949097 588.87877472 257.76945068 590.03981018 257.76940918 C593.69332708 257.77279533 597.34654387 257.79166025 601 257.8125 C603.52465765 257.82136646 606.04931587 257.83007356 608.57397461 257.83862305 C634.1918253 257.94832283 659.54133519 258.78275035 685.07763672 260.90673828 C744.98860323 265.82766958 803.55272847 265.925113 858 237 C859.093125 236.43667969 860.18625 235.87335938 861.3125 235.29296875 C880.88031424 225.05343851 898.73227825 212.3830172 915.46484375 198.02734375 C916.63144531 197.02832031 917.79804687 196.02929688 919 195 C920.0725 194.071875 921.145 193.14375 922.25 192.1875 C925 190 925 190 928 189 C928 188.34 928 187.68 928 187 C929.83080636 185.36974133 931.66875338 183.7470117 933.53564453 182.15820312 C938.2061743 178.06790362 942.54765657 173.63683875 946.9375 169.25 C948.34418945 167.86167969 948.34418945 167.86167969 949.77929688 166.4453125 C1023.23723962 93.14051349 912.38558042 57.24109186 853.1875 38.0625 C852.09800049 37.70897461 851.00850098 37.35544922 849.88598633 36.99121094 C836.04555132 32.61048908 822.04788792 29.46421932 807.75 27 C806.43515625 26.76539063 805.1203125 26.53078125 803.765625 26.2890625 C780.25655386 22.17939405 756.7003973 19.30844973 732.9375 17.1875 C730.20557659 16.937871 727.47372619 16.68744199 724.74194336 16.4362793 C718.91908184 15.90176774 713.09591238 15.37081867 707.27246094 14.84277344 C692.50329017 13.502343 677.7363803 12.13755714 662.97000122 10.76675415 C658.18658645 10.32398584 653.40277092 9.88576784 648.61889648 9.44799805 C630.28441411 7.7589175 537.82545962 -10.87763753 590.54345703 -11.16113281 C592.00679474 -11.1706044 593.47013245 -11.18007599 594.97781372 -11.18983459 C596.55521332 -11.19422043 598.13261292 -11.19860626 599.7578125 -11.203125 C601.42069305 -11.21004868 603.08357361 -11.21697235 604.79684448 -11.22410583 C610.23958665 -11.24152092 615.68223114 -11.24771337 621.125 -11.25 C622.98721191 -11.25133942 624.84942383 -11.25267883 626.76806641 -11.25405884 C658.24918072 -11.24916145 689.57221774 -10.33418137 720.99072266 -8.41894531 C727.96446289 -7.99545698 734.94059108 -7.63106891 741.91796875 -7.2734375 C800.29047439 -4.23692904 855.58689163 6.18687604 912 21 C913.69189453 21.44424316 915.38378906 21.88848633 917.12695312 22.34619141 C928.07631014 25.23566543 939.00650915 28.19372058 949.93341064 31.16680908 C955.83835981 32.77118105 961.74557775 34.36717669 967.65234375 35.96484375 C995.0950987 43.39169813 995.0950987 43.39169813 1008.37518311 47.01290894 C1010.83994295 47.68409937 1013.30517123 48.35357146 1015.77081299 49.02151489 C1030.58955768 53.03706433 1045.31951096 57.15952821 1059.875 62.0625 C1061.33550781 62.54009766 1062.79601563 63.01769531 1064.30078125 63.50976562 C1078.08428598 68.11451364 1091.01723814 73.72618824 1103 82 C1103.94875 82.639375 1104.8975 83.27875 1105.875 83.9375 C1124.61603269 96.97474013 1154.75150707 182 1113 182 C1112.67 182.99 1112.34 183.98 1112 185 C1091.67356181 203.46318136 1065.01462295 212.80300507 1039.609375 221.95703125 C1031.46368546 224.9237413 1023.35840619 227.99559401 1015.25 231.0625 C1013.68507813 231.65272949 1012.12015625 232.24295898 1010.5078125 232.85107422 C995.76364494 238.42847347 981.19435659 244.12833952 967 251 C965.35257813 251.79148437 963.70515625 252.58296875 962.0078125 253.3984375 C939.27776749 264.4549542 917.76548994 277.60485751 896.671875 291.5078125 C895.74842285 292.10980469 894.8249707 292.71179687 893.87353516 293.33203125 C891.30770244 295.0058166 888.7511355 296.69378209 886.1953125 298.3828125 C869.97583814 308.26401532 852.36536709 314.76717239 834.4375 320.75 C833.33994385 321.11918549 832.2423877 321.48837097 831.11157227 321.8687439 C803.2618405 331.2038481 776.22288706 336.10477254 747 339 C745.57768066 339.14566406 744.15536133 339.29132813 742.68994141 339.44140625 C725.8298096 341.14332702 709.00263976 342.26491885 692.0625 342.75 C690.55333008 342.79471436 689.04416016 342.83942871 687.48925781 342.88549805 C669.53889702 343.28397953 651.87277986 341.967098 634.0625 339.8125 C631.30096558 339.48693115 631.30096558 339.48693115 628.48364258 339.15478516 C616.92182269 337.77294109 605.38445896 336.2489048 593.85009766 334.65551758 C523.49752553 324.95830394 466.71492125 333.65321215 398.61816406 352.02490234 C390.09031182 354.32316428 381.55535672 356.59484282 373.01953125 358.86328125 C367.28376436 360.38779715 361.55332205 361.93111113 355.82421875 363.48046875 C302.04800351 377.93812075 244.89109695 389.36247029 189 381 C186.00266003 380.80982395 183.00509873 380.62226124 180.00634766 380.45581055 C133.09255917 377.79692096 83.8546601 373.76264265 40 356 C37.78990234 355.14341797 37.78990234 355.14341797 35.53515625 354.26953125 C24.08315746 349.8011803 12.83182866 344.90726713 1.5625 340 C-39.90377706 321.97638779 -81.25761561 310.43675481 -126 304 C-127.0916748 303.83661133 -128.18334961 303.67322266 -129.30810547 303.50488281 C-145.09716941 301.16945537 -160.96608302 300.32976461 -176.88388062 299.37905884 C-190.68551034 298.54917361 -204.4407391 297.51281526 -218.1875 296 C-219.62134033 295.8460376 -221.05518066 295.6920752 -222.5324707 295.53344727 C-234.75846121 294.1197965 -245.76584919 291.49726289 -257.0625 286.4375 C-258.54568726 285.78104492 -258.54568726 285.78104492 -260.05883789 285.11132812 C-275.4061879 278.22515455 -289.88604622 270.13583018 -304 261 C-305.40121094 260.10152344 -306.80242187 259.20304687 -308.24609375 258.27734375 C-315.12389414 253.85189934 -321.95905127 249.37004319 -328.75 244.8125 C-331.16464499 243.20529185 -333.58123669 241.6010036 -336 240 C-337.12277344 239.25363281 -338.24554688 238.50726562 -339.40234375 237.73828125 C-340.48644531 237.04089844 -341.57054687 236.34351563 -342.6875 235.625 C-343.61949219 235.01914063 -344.55148437 234.41328125 -345.51171875 233.7890625 C-356.53774707 228.13405581 -368.84791988 226.17013174 -380.875 223.6875 C-384.62930724 222.89643191 -388.38321176 222.10345024 -392.13671875 221.30859375 C-394.89861572 220.72440674 -394.89861572 220.72440674 -397.71630859 220.12841797 C-433.99564752 212.38037691 -433.99564752 212.38037691 -448 207 C-450.39572266 206.10667969 -450.39572266 206.10667969 -452.83984375 205.1953125 C-497 188.21825916 -497 188.21825916 -497 177 C-497.99 176.67 -498.98 176.34 -500 176 C-500 175.34 -500 174.68 -500 174 C-501.32 173.34 -502.64 172.68 -504 172 C-506.78326899 168.71483004 -509.41568737 165.43447903 -512 162 C-512.63808594 161.17628906 -513.27617188 160.35257813 -513.93359375 159.50390625 C-542.52846604 121.06993812 -491.92279534 95.95806923 -462 82 C-460.10121094 81.06994141 -460.10121094 81.06994141 -458.1640625 80.12109375 C-403.35568976 54.28286088 -337.5558822 41.24745515 -277.796875 34.52734375 C-252.66683792 31.68468746 -229.56132923 26.6122803 -205.5625 18.5 C-188.63725343 12.93553537 -171.39781756 8.76281401 -154 5 C-152.99469238 4.77957031 -151.98938477 4.55914063 -150.95361328 4.33203125 C-135.15200643 0.91546761 -119.26822032 -1.19187338 -103.22436523 -3.12963867 C-83.63621735 -5.49907615 -64.14445759 -8.29271381 -44.73828125 -11.87109375 C-42.99426025 -12.19223145 -41.25023926 -12.51336914 -39.45336914 -12.84423828 C-36.07661361 -13.47259714 -32.70193017 -14.11223545 -29.32983398 -14.76513672 C-20.95609412 -16.33551267 23.11635397 -15.48872865 0 0 Z " fill="#797A99" transform="translate(542,1060)"/>
<path d="M0 0 C1.17863113 -0.00095673 2.35726227 -0.00191345 3.5716095 -0.00289917 C6.05856378 -0.00357753 8.54551986 -0.00174728 11.0324707 0.00244141 C14.8022875 0.00777045 18.57198387 0.00249704 22.34179688 -0.00390625 C24.76953151 -0.00324494 27.19726607 -0.00196269 29.625 0 C31.29129707 -0.00303635 31.29129707 -0.00303635 32.99125671 -0.00613403 C54.85518235 0.05801581 80.24952324 13.42360741 44.67578125 17.39453125 C42.66264823 17.62473076 40.64954743 17.85521217 38.63647461 18.0859375 C37.57911102 18.20517578 36.52174744 18.32441406 35.43234253 18.44726562 C-27.42633002 24.68236758 -27.42633002 24.68236758 -87.35546875 43.1328125 C-89.76859375 44.16728516 -89.76859375 44.16728516 -92.23046875 45.22265625 C-110.59584856 53.25750992 -128.3549728 62.50972308 -145.35546875 73.1328125 C-147.65451172 74.53660156 -147.65451172 74.53660156 -150 75.96875 C-159.97443097 82.13245715 -169.33178144 88.64888136 -178.35546875 96.1328125 C-179.81984375 97.2878125 -181.28421875 98.4428125 -182.79296875 99.6328125 C-194.52025682 111.15435867 -200.01175845 126.77712182 -186.35546875 139.1328125 C-185.61296875 139.8134375 -184.87046875 140.4940625 -184.10546875 141.1953125 C-161.32587927 157.24456873 -122.47968668 154.34361489 -95.89550781 155.31103516 C-94.37538086 155.37597168 -92.85525391 155.4409082 -91.2890625 155.5078125 C-89.94900146 155.55679687 -88.60894043 155.60578125 -87.22827148 155.65625 C-80.53760943 156.47956037 -74.71869181 159.33718113 -68.6796875 162.20703125 C-67.44855225 162.788479 -66.21741699 163.36992676 -64.94897461 163.96899414 C-63.65999268 164.5799292 -62.37101074 165.19086426 -61.04296875 165.8203125 C-49.58358723 171.20901206 -38.09912985 176.38883851 -26.35546875 181.1328125 C-25.30101562 181.57625 -24.2465625 182.0196875 -23.16015625 182.4765625 C16.75818268 198.73572927 59.12720624 201.36228816 101.70703125 201.3203125 C102.93852905 201.31937592 104.17002686 201.31843933 105.43884277 201.31747437 C136.54613132 201.26637234 166.75872933 199.38124291 197.53979492 194.73193359 C226.18021207 190.55162171 254.33381663 189.65486745 283.01171875 193.93359375 C301.92673981 196.64123923 320.99070429 198.29818778 339.64453125 193.1328125 C341.15660156 192.71902344 342.66867187 192.30523438 344.2265625 191.87890625 C353.07190663 189.33283465 361.71004502 186.41452009 370.33203125 183.1953125 C398.33556196 172.88340098 428.07161168 166.16350031 457.875 164.10546875 C459.0230864 164.02353775 460.17117279 163.94160675 461.35404968 163.85719299 C474.77772098 162.93453939 488.21672476 162.33271896 501.65893555 161.75512695 C505.94274888 161.57092663 510.22626148 161.38069629 514.50976562 161.18945312 C528.13620948 160.58798564 541.76127648 160.05297195 555.39453125 159.6328125 C567.40029356 159.25548547 579.35319955 158.60527439 591.33203125 157.6953125 C593.06001953 157.57349609 594.78800781 157.45167969 596.56835938 157.32617188 C612.87652325 156.11792787 626.11675404 153.71946283 640.296875 145.109375 C643.11018659 143.44830655 645.97934115 141.88233379 648.859375 140.33984375 C654.54261683 137.25502646 659.91095009 133.80877709 665.26953125 130.1953125 C666.14609375 129.61330078 667.02265625 129.03128906 667.92578125 128.43164062 C676.94998246 122.38649694 706.50847242 102.47838897 685.64453125 94.1328125 C684.46890625 93.6378125 683.29328125 93.1428125 682.08203125 92.6328125 C672.52720423 89.40301182 662.80504379 88.79838693 652.8046875 88.5390625 C650.99823509 88.4835321 650.99823509 88.4835321 649.1552887 88.42687988 C633.84198159 87.98023533 618.52332051 87.78700583 603.20532227 87.58056641 C589.43366331 87.39123541 575.66733523 87.15682278 561.90234375 86.67578125 C560.82049301 86.64000977 559.73864227 86.60423828 558.62400818 86.56738281 C532.29108671 85.57364381 506.31800561 79.14770963 481.64453125 70.1328125 C480.47535156 69.71257812 479.30617188 69.29234375 478.1015625 68.859375 C441.25907231 54.65618991 459.76660571 39.81986427 490.66015625 39.83203125 C492.73762646 39.82693981 494.81509543 39.82131812 496.89256287 39.81520081 C502.42000137 39.80290136 507.94731652 39.80600013 513.47475815 39.81495667 C516.90005351 39.82032115 520.3253421 39.82274225 523.75064087 39.8248291 C557.44643872 39.85687 591.05415518 40.21573698 624.64453125 43.1328125 C626.26842773 43.27203125 627.89232422 43.41125 629.56542969 43.5546875 C657.26673691 46.07670325 683.82193903 52.42058711 710.22998047 61.02197266 C713.9269576 62.22469295 717.63148088 63.40256473 721.3359375 64.58203125 C747.43881558 72.98124815 791.93263861 89.20599041 765.64453125 146.1328125 C764.98453125 147.4528125 764.32453125 148.7728125 763.64453125 150.1328125 C762.04959555 151.91410532 760.39559402 153.64313516 758.70703125 155.3359375 C757.24136719 156.80546875 757.24136719 156.80546875 755.74609375 158.3046875 C754.72257812 159.32046875 753.6990625 160.33625 752.64453125 161.3828125 C751.62101562 162.4140625 750.5975 163.4453125 749.54296875 164.5078125 C748.07730469 165.96960937 748.07730469 165.96960937 746.58203125 167.4609375 C745.23431641 168.80526855 745.23431641 168.80526855 743.859375 170.17675781 C741.64453125 172.1328125 741.64453125 172.1328125 739.64453125 172.1328125 C738.98453125 173.4528125 738.32453125 174.7728125 737.64453125 176.1328125 C735.00406127 178.16727297 732.33509903 180.16508383 729.64453125 182.1328125 C728.85820313 182.92429687 728.071875 183.71578125 727.26171875 184.53125 C724.52598151 187.25065448 721.67440819 189.51764497 718.58203125 191.8203125 C717.04869141 192.97080078 717.04869141 192.97080078 715.484375 194.14453125 C711.01080305 197.27664696 707.99058731 198.38706555 702.61328125 198.3984375 C701.40800781 198.40101563 700.20273438 198.40359375 698.9609375 198.40625 C697.70152344 198.39851563 696.44210937 198.39078125 695.14453125 198.3828125 C693.94699219 198.39054687 692.74945312 198.39828125 691.515625 198.40625 C682.55462104 198.38740457 673.77302597 197.61361372 664.86669922 196.66308594 C656.07860953 195.77071891 647.27080358 195.20615788 638.45703125 194.6328125 C636.49145264 194.50463135 634.52587402 194.3764502 632.50073242 194.24438477 C529.44459 182.49720676 529.44459 182.49720676 428.64453125 195.1328125 C427.40574219 195.55433594 426.16695312 195.97585938 424.890625 196.41015625 C417.36471075 199.10812551 410.10138869 202.24653165 402.83203125 205.5703125 C350.07310824 229.51876498 294.56119851 229.50924443 237.8034668 225.20922852 C210.52522339 222.97629312 210.52522339 222.97629312 183.28393555 224.62133789 C179.06371752 225.2144389 174.91524439 225.36766693 170.65625 225.51953125 C159.17111279 226.05856758 147.84780053 227.4309168 136.45703125 228.9453125 C134.36509836 229.21814132 132.27313846 229.4907632 130.18115234 229.76318359 C115.95596024 231.62965678 101.78858963 233.7253132 87.64453125 236.1328125 C79.31832277 237.513217 70.98435847 238.83741666 62.64453125 240.1328125 C61.27425781 240.36226562 59.90398437 240.59171875 58.4921875 240.828125 C48.45834109 242.29851322 38.39295757 242.40275656 28.26953125 242.5078125 C26.80652588 242.53391602 25.34352051 242.56001953 23.83618164 242.58691406 C6.16111128 242.61516028 -6.38806734 234.90285366 -20.73046875 225.1953125 C-44.75526805 208.9873138 -63.47836354 204.78631133 -92.25390625 204.97265625 C-94.4600091 204.9789438 -96.66611517 204.98417815 -98.8722229 204.98841858 C-104.64950873 205.00163705 -110.42668613 205.02601849 -116.20391846 205.05377197 C-125.43997632 205.09709172 -134.67606079 205.1268447 -143.91218948 205.1498127 C-147.10909524 205.15989662 -150.30590659 205.17695975 -153.5027771 205.19480896 C-168.99887244 205.24603318 -184.06336608 204.82656433 -199.33203125 202.09375 C-200.49408081 201.89225342 -201.65613037 201.69075684 -202.85339355 201.4831543 C-206.56440283 200.83542261 -210.27258951 200.17321229 -213.98046875 199.5078125 C-215.24936951 199.28216614 -216.51827026 199.05651978 -217.82562256 198.82403564 C-240.47234522 194.78847113 -348.35546875 169.98767225 -348.35546875 144.1328125 C-349.67546875 143.4728125 -350.99546875 142.8128125 -352.35546875 142.1328125 C-353.9556496 140.56539986 -355.49387281 138.93334036 -356.98046875 137.2578125 C-357.75648438 136.39414063 -358.5325 135.53046875 -359.33203125 134.640625 C-378.76904152 110.55073969 -318.56959333 91.28974646 -302.484375 85.6015625 C-299.13638116 84.41060159 -295.87277268 83.14935489 -292.60546875 81.7578125 C-278.17177468 75.63503546 -263.53054692 70.09580911 -248.7019043 65.01245117 C-242.72256028 62.96255067 -236.77963167 60.83692025 -230.85546875 58.6328125 C-208.2158893 50.24429222 -185.2805489 42.69696691 -162.35546875 35.1328125 C-161.25187012 34.76736328 -160.14827148 34.40191406 -159.01123047 34.02539062 C-145.3352614 29.51138988 -131.53947304 25.66148625 -117.6171875 22.00341797 C-114.49034315 21.16881266 -111.37531015 20.30058934 -108.26171875 19.41796875 C-79.45976854 11.31051442 -49.95870682 5.44453712 -20.35546875 1.1328125 C-19.16638916 0.95177979 -17.97730957 0.77074707 -16.75219727 0.58422852 C-11.16322382 0.01040366 -5.61128601 -0.01013263 0 0 Z " fill="#797A99" transform="translate(650.35546875,1077.8671875)"/>
<path d="M0 0 C-0.71929688 0.64324219 -1.43859375 1.28648438 -2.1796875 1.94921875 C-5.62577077 4.45502722 -8.92170398 5.68898309 -12.9375 7.125 C-14.61328125 7.72699219 -16.2890625 8.32898437 -18.015625 8.94921875 C-22.44573942 10.48791682 -26.89750277 11.95068042 -31.359375 13.39453125 C-140.94032104 48.91254396 19.31327167 77.8643761 58 71 C59.49144531 70.7421875 60.98289062 70.484375 62.51953125 70.21875 C73.2947103 68.20761441 83.82994514 65.55161659 94.36474609 62.55004883 C97.56609926 61.65189844 100.77526137 60.81019553 104 60 C105.14500977 59.7117334 106.29001953 59.4234668 107.46972656 59.12646484 C119.99917386 56.36698381 132.50163516 56.6320108 145.25 56.75 C147.42577778 56.75649971 149.60155978 56.76171231 151.77734375 56.765625 C164.65006952 56.81236171 177.50835599 57.10939774 190.375 57.49609375 C207.59204539 58.00737468 224.80140286 58.25126716 242.02587891 58.29516602 C245.21114484 58.30685355 248.39638881 58.32755793 251.58154297 58.35668945 C256.29928232 58.39945636 261.01646584 58.41552329 265.734375 58.42578125 C267.13564636 58.44328934 268.53691772 58.46079742 269.98065186 58.47883606 C326.01041296 58.35688256 340.9152776 35.97991415 281.18481445 18.96630859 C242.5192885 7.59176562 258.93682718 -4.88941929 291.3125 -1.8125 C292.71749756 -1.68085449 294.12249512 -1.54920898 295.57006836 -1.41357422 C337.9889302 2.74831179 378.12141178 11.94283124 418.6953125 24.72265625 C424.80603667 26.64197693 430.94010997 28.47003806 437.08496094 30.27661133 C449.20840111 33.84900832 461.22723237 37.66277631 473.1875 41.75 C475.16423706 42.42168213 475.16423706 42.42168213 477.1809082 43.10693359 C489.34257602 47.31580996 521.17728139 62.72828575 491.25 67.6875 C489.24679687 68.03361328 489.24679687 68.03361328 487.203125 68.38671875 C477.41528693 69.81486984 467.71453183 70.32537545 457.83984375 70.68359375 C454.59700474 70.8079306 451.35416622 70.93227999 448.11132812 71.05664062 C443.0619713 71.24631633 438.01256899 71.43471093 432.96313477 71.62231445 C415.73010961 72.26664338 398.50598912 72.95218948 381.29296875 74.015625 C380.01437485 74.09393051 378.73578094 74.17223602 377.41844177 74.25291443 C343.72015877 76.41631208 343.72015877 76.41631208 311 84 C291.75946279 86.63375211 272.52245945 87.2927339 253.12890625 87.40625 C251.97939861 87.41300751 250.82989098 87.41976501 249.64554977 87.42672729 C240.06909885 87.47671278 230.49263415 87.49136432 220.91607666 87.50531006 C213.73112844 87.51697921 206.54640788 87.54089257 199.3615551 87.58000183 C196.06690178 87.59324554 192.77258831 87.58946684 189.47792053 87.58459473 C160.40479861 87.65951851 134.03748742 93.27764899 106.45117188 102.32836914 C66.80017177 115.26365548 16.30498332 124.81417391 -18.5390625 96.015625 C-20.95689005 94.0353091 -23.40797945 92.14779882 -25.9375 90.3125 C-26.64777344 89.79300781 -27.35804688 89.27351563 -28.08984375 88.73828125 C-36.27362929 83.84997982 -44.77329539 80.93128008 -53.9375 78.5625 C-55.0601123 78.26593506 -56.18272461 77.96937012 -57.33935547 77.66381836 C-66.53611804 75.27892974 -75.79694794 73.27935955 -85.09545898 71.33789062 C-141.24357778 59.52620824 -216.25469378 19.78450716 -119.4375 -3.875 C-118.06489014 -4.21305664 -116.69228027 -4.55111328 -115.27807617 -4.89941406 C-89.45191822 -11.13366552 -63.37307916 -15.81996271 -37 -19 C-35.411875 -19.19335938 -33.82375 -19.38671875 -32.1875 -19.5859375 C-21.92150609 -20.60104511 22.23108672 -18.27889353 0 0 Z " fill="#797A99" transform="translate(710,1137)"/>
</svg>
