<?xml version="1.0" encoding="UTF-8"?>
<svg version="1.1" xmlns="http://www.w3.org/2000/svg" width="1700" height="1700">
<path d="M0 0 C-0.65484375 1.96710938 -1.3096875 3.93421875 -1.984375 5.9609375 C-7.68244022 22.38833829 -14.45345467 38.35765846 -21.28125 54.33984375 C-34.33211675 85.42755979 -43.85027383 117.48298092 -48 151 C-48.18304687 152.1859375 -48.36609375 153.371875 -48.5546875 154.59375 C-49.21260449 161.10366543 -49.22499362 167.58583119 -49.25 174.125 C-49.270625 175.45015625 -49.29125 176.7753125 -49.3125 178.140625 C-49.46151419 216.21375111 -23.82641869 253.80075831 -4 285 C-3.15953125 286.32257813 -2.3190625 287.64515625 -1.453125 289.0078125 C3.85620816 297.1696756 9.64825073 304.6315682 16 312 C24.6509434 322.30188679 24.6509434 322.30188679 27 327 C27.66 327 28.32 327 29 327 C33 332 33 332 33 334 C33.66 334 34.32 334 35 334 C37.37859942 336.62637019 39.6999225 339.30459668 42 342 C43.62017881 343.77524543 45.24543391 345.5458676 46.875 347.3125 C50.90979774 351.74167646 54.77428861 356.2789284 58.53515625 360.9453125 C60.33989369 363.18192848 62.16283346 365.4038902 63.99609375 367.6171875 C131.62042148 449.6106701 145.97252586 563.20705899 93 658 C92.05125 659.876875 91.1025 661.75375 90.125 663.6875 C85.67565431 671.25138768 80.34520863 678.05260997 75 685 C73.43464717 687.10204523 71.87185563 689.20600205 70.3125 691.3125 C57.76826132 708 57.76826132 708 55 708 C54.34 709.32 53.68 710.64 53 712 C46.77919312 718.61577874 40.15187314 724.4385721 33 730 C31.515 731.155 30.03 732.31 28.5 733.5 C-62.76164009 791.57558915 -140.16272059 715.08230236 -140.4375 620.375 C-140.47037109 618.39886719 -140.50324219 616.42273438 -140.53710938 614.38671875 C-140.61928576 591.72097742 -135.26932286 569.41238572 -120 552 C-117.8653125 549.4940625 -117.8653125 549.4940625 -115.6875 546.9375 C-99.26019906 529.63407635 -7 500.03352875 -7 547 C-10.83536665 550.83536665 -13.81613429 551.21214311 -19.0625 552.5 C-21.6303125 553.1496875 -21.6303125 553.1496875 -24.25 553.8125 C-25.8175 554.204375 -27.385 554.59625 -29 555 C-84.56639821 569.98419727 -78.65070313 677.08745504 -13.3046875 660.9296875 C46.09162983 644.22008523 61.39614088 563.38915486 61.3125 510.8125 C61.32861328 508.80607422 61.34472656 506.79964844 61.36132812 504.73242188 C61.36721372 486.5753691 59.54264624 469.50512323 53.5625 452.3125 C52.91595459 450.41890747 52.91595459 450.41890747 52.25634766 448.48706055 C44.74116284 427.12437744 35.35289469 407.82287937 19 391.75 C17.494375 390.25984375 15.98875 388.7696875 14.4375 387.234375 C11.67309545 384.59651009 8.86076298 382.00690417 5.98046875 379.49609375 C1.55760682 375.61144073 -2.5551199 371.50407265 -6.6875 367.3125 C-11.01561527 362.92271968 -15.18272416 358.85382067 -20 355 C-21.32 353.35 -22.64 351.7 -24 350 C-25.299375 348.865625 -26.59875 347.73125 -27.9375 346.5625 C-31.40659916 343.52036689 -34.06565739 340.52121114 -37 337 C-38.27875 335.88625 -39.5575 334.7725 -40.875 333.625 C-45.00140248 329.99876752 -48.41291813 326.15346321 -52 322 C-53.44375 320.576875 -54.8875 319.15375 -56.375 317.6875 C-61.28085646 312.71534818 -65.68255982 307.47702293 -70 302 C-70.804375 301.00097656 -71.60875 300.00195312 -72.4375 298.97265625 C-91.42765506 274.96791337 -103.10431678 248.59613171 -103.203125 217.765625 C-103.20882507 216.37784851 -103.21452515 214.99007202 -103.22039795 213.5602417 C-103.22983282 210.62171181 -103.23637591 207.68317141 -103.24023438 204.74462891 C-103.24987524 200.30742179 -103.2808876 195.87069102 -103.3125 191.43359375 C-103.3684234 176.6744925 -103.09946281 162.50066701 -100 148 C-99.77022461 146.82308594 -99.54044922 145.64617187 -99.30371094 144.43359375 C-90.42986578 100.05129899 -73.21736422 59.08159798 -55.57666016 17.65771484 C-31.03219856 -39.48625831 -31.03219856 -39.48625831 -30 -101 C-31.71511352 -134.61622509 19.4808838 -56.34891154 0 0 Z " fill="#797A99" transform="translate(855,277)"/>
<path d="M0 0 C-1.47726562 1.25425781 -2.95453125 2.50851562 -4.4765625 3.80078125 C-12.8070673 9.82469904 -22.64891175 12.22810341 -32.375 15.1875 C-36.15460729 16.36540895 -39.93327801 17.54632793 -43.7109375 18.73046875 C-45.49443604 19.28694092 -47.27793457 19.84341309 -49.11547852 20.41674805 C-53.19548202 21.73922632 -57.18459858 23.15355145 -61.17578125 24.71875 C-66.67521726 26.87278798 -72.14859883 28.64761876 -77.8125 30.3125 C-85.86284837 32.72134776 -93.85022009 35.25181035 -101.8125 37.9375 C-120.04920109 44.05982108 -138.34737837 49.76658161 -157.02734375 54.3828125 C-161.9336656 55.71127375 -166.70986195 57.1906998 -171.5390625 58.765625 C-183.69196321 62.63935838 -196.04575365 65.62622578 -208.4375 68.625 C-210.96456227 69.24143734 -213.49157965 69.85805869 -216.01855469 70.47485352 C-234.32568552 74.92931807 -252.67717104 79.17869189 -271.04492188 83.37597656 C-288.5464245 87.39284596 -305.99809513 91.59747256 -323.4375 95.875 C-324.71983521 96.18815155 -326.00217041 96.5013031 -327.32336426 96.82394409 C-342.64382975 100.56936653 -357.86849104 104.54140799 -373 109 C-374.20833496 109.34401855 -375.41666992 109.68803711 -376.66162109 110.04248047 C-444.00184893 129.72562055 -418.03509364 169.83433759 -365.15820312 183.33886719 C-335.29761265 191.02517346 -312.86864899 202.00700441 -289.41796875 222.13671875 C-248.77124478 256.18706009 -212.91727954 262.39161687 -160.83738327 261.98346901 C-157.15808026 261.95617552 -153.47884284 261.9387236 -149.79946899 261.92399597 C-139.3577333 261.88187693 -128.91612752 261.83375032 -118.47460938 261.75317383 C-112.03430633 261.70418106 -105.59417119 261.67553236 -99.1537056 261.65942955 C-96.73243727 261.64966106 -94.31118496 261.63265472 -91.89002609 261.60764503 C-76.43670596 261.45139884 -62.09433815 262.67913717 -47 266 C-44.40430145 266.54654236 -44.40430145 266.54654236 -41.75616455 267.10412598 C-13.94599153 273.00274954 12.04659644 280.89919723 38.09130859 292.36035156 C110.67657793 324.21562168 178.81803325 329.90689529 254 301 C261.31948017 298.2946139 268.65691982 295.64059108 276 293 C277.07862305 292.6095752 278.15724609 292.21915039 279.26855469 291.81689453 C296.74413365 285.51286092 313.76451128 279.91125839 332.53222656 279.85473633 C334.70815399 279.84516655 334.70815399 279.84516655 336.92803955 279.83540344 C338.48319275 279.83429062 340.03834595 279.8331778 341.640625 279.83203125 C343.27199402 279.82870285 344.90336304 279.82537445 346.58416748 279.82194519 C350.04390177 279.81688541 353.50364092 279.81453657 356.96337891 279.81469727 C362.16187043 279.81253663 367.36014048 279.79444255 372.55859375 279.77539062 C396.53131449 279.73497535 420.0819537 280.75703298 443.90625 283.55859375 C480.23910674 287.47616323 509.51683075 280.10956937 543.875 268.25 C548.28820747 266.73186681 552.70259489 265.21723181 557.1171875 263.703125 C559.04159668 263.03958008 560.96600586 262.37603516 562.94873047 261.69238281 C565.44910889 260.85465332 565.44910889 260.85465332 568 260 C569.13969238 259.59837646 570.27938477 259.19675293 571.45361328 258.78295898 C576.54333886 257.65926699 581.41650998 257.75919373 586.625 257.76953125 C590.0756189 257.77110229 590.0756189 257.77110229 593.59594727 257.77270508 C596.06396916 257.78514046 598.53198692 257.79842216 601 257.8125 C603.52465765 257.82136646 606.04931587 257.83007356 608.57397461 257.83862305 C634.20170998 257.94836515 659.53613866 258.78231812 685.07763672 260.90673828 C745.25372325 265.84944585 803.47652598 265.96559557 858 237 C859.093125 236.43667969 860.18625 235.87335938 861.3125 235.29296875 C880.88031424 225.05343851 898.73227825 212.3830172 915.46484375 198.02734375 C916.63144531 197.02832031 917.79804687 196.02929688 919 195 C920.0725 194.071875 921.145 193.14375 922.25 192.1875 C925 190 925 190 928 189 C928 188.34 928 187.68 928 187 C930.64629203 184.64358449 933.31884019 182.31666519 936 180 C939.70269494 176.47335667 943.32064197 172.86438243 946.9375 169.25 C948.34418945 167.86167969 948.34418945 167.86167969 949.77929688 166.4453125 C1034.01601623 82.38420827 871.25961517 37.94578595 807.75 27 C806.43515625 26.76539063 805.1203125 26.53078125 803.765625 26.2890625 C780.25007017 22.17826062 756.70387872 19.30876047 732.9375 17.1875 C730.20557659 16.937871 727.47372619 16.68744199 724.74194336 16.4362793 C718.91908184 15.90176774 713.09591238 15.37081867 707.27246094 14.84277344 C692.50329017 13.502343 677.7363803 12.13755714 662.97000122 10.76675415 C658.18658645 10.32398584 653.40277092 9.88576784 648.61889648 9.44799805 C629.62742583 7.69839187 537.66426254 -10.87677068 590.54345703 -11.16113281 C592.00679474 -11.1706044 593.47013245 -11.18007599 594.97781372 -11.18983459 C596.55521332 -11.19422043 598.13261292 -11.19860626 599.7578125 -11.203125 C601.42069305 -11.21004868 603.08357361 -11.21697235 604.79684448 -11.22410583 C610.23958665 -11.24152092 615.68223114 -11.24771337 621.125 -11.25 C622.98721191 -11.25133942 624.84942383 -11.25267883 626.76806641 -11.25405884 C658.24918072 -11.24916145 689.57221774 -10.33418137 720.99072266 -8.41894531 C727.96458206 -7.99544974 734.94044355 -7.63166417 741.91796875 -7.2734375 C800.28667452 -4.21266795 855.45208388 6.15147781 912 21 C913.69189453 21.44424316 915.38378906 21.88848633 917.12695312 22.34619141 C927.12403488 24.98436532 937.10585503 27.67685351 947.08251953 30.39111328 C953.93754228 32.25490567 960.79488667 34.11003296 967.65234375 35.96484375 C995.0950987 43.39169813 995.0950987 43.39169813 1008.37518311 47.01290894 C1010.83994295 47.68409937 1013.30517123 48.35357146 1015.77081299 49.02151489 C1030.58533769 53.03592081 1045.32394335 57.16102125 1059.875 62.0625 C1061.33550781 62.54009766 1062.79601563 63.01769531 1064.30078125 63.50976562 C1132.31573383 86.2319777 1158.69310649 182 1113 182 C1112.67 182.99 1112.34 183.98 1112 185 C1091.67356181 203.46318136 1065.01462295 212.80300507 1039.609375 221.95703125 C1031.46368546 224.9237413 1023.35840619 227.99559401 1015.25 231.0625 C1013.68507813 231.65272949 1012.12015625 232.24295898 1010.5078125 232.85107422 C995.76364494 238.42847347 981.19435659 244.12833952 967 251 C965.35257813 251.79148437 963.70515625 252.58296875 962.0078125 253.3984375 C939.28910731 264.5133277 917.78484981 277.60792146 896.671875 291.5078125 C894.84140625 292.70148438 893.0109375 293.89515625 891.125 295.125 C889.49820312 296.20007812 887.87140625 297.27515625 886.1953125 298.3828125 C870.00157215 308.24833768 852.34360294 314.75541388 834.4375 320.75 C833.33994385 321.11918549 832.2423877 321.48837097 831.11157227 321.8687439 C803.31561588 331.18582284 776.09625137 336.11731884 747 339 C745.57768066 339.14566406 744.15536133 339.29132813 742.68994141 339.44140625 C725.8298096 341.14332702 709.00263976 342.26491885 692.0625 342.75 C690.55333008 342.79471436 689.04416016 342.83942871 687.48925781 342.88549805 C669.53889702 343.28397953 651.87277986 341.967098 634.0625 339.8125 C631.30096558 339.48693115 631.30096558 339.48693115 628.48364258 339.15478516 C616.92174262 337.77293152 605.38430361 336.24884869 593.84985352 334.65551758 C523.77652209 324.9963773 466.38672856 333.74175461 398.61816406 352.02490234 C390.09031182 354.32316428 381.55535672 356.59484282 373.01953125 358.86328125 C367.28376436 360.38779715 361.55332205 361.93111113 355.82421875 363.48046875 C302.0311319 377.94265665 244.89386318 389.36288418 189 381 C184.79270757 380.73305455 180.58413029 380.4862026 176.375 380.25 C130.6401981 377.39623555 82.72461315 373.4133724 40 356 C37.53466797 355.01580078 37.53466797 355.01580078 35.01953125 354.01171875 C24.96534889 349.95798235 14.9967671 345.71762355 5.04345703 341.42382812 C-37.75210376 322.96815747 -79.86813693 310.6366488 -126 304 C-128.06121094 303.69320313 -130.12242187 303.38640625 -132.24609375 303.0703125 C-148.08847977 300.93747219 -164.00386051 300.15030847 -179.9519043 299.19458008 C-192.73266568 298.40461163 -205.45876535 297.40078264 -218.1875 296 C-219.62134033 295.8460376 -221.05518066 295.6920752 -222.5324707 295.53344727 C-252.41093204 292.0786998 -279.072785 277.13515296 -304 261 C-305.40121094 260.10152344 -306.80242187 259.20304687 -308.24609375 258.27734375 C-315.12389414 253.85189934 -321.95905127 249.37004319 -328.75 244.8125 C-331.16464499 243.20529185 -333.58123669 241.6010036 -336 240 C-337.12277344 239.25363281 -338.24554688 238.50726562 -339.40234375 237.73828125 C-340.48644531 237.04089844 -341.57054687 236.34351563 -342.6875 235.625 C-343.61949219 235.01914063 -344.55148437 234.41328125 -345.51171875 233.7890625 C-356.53774707 228.13405581 -368.84791988 226.17013174 -380.875 223.6875 C-384.62930724 222.89643191 -388.38321176 222.10345024 -392.13671875 221.30859375 C-394.89861572 220.72440674 -394.89861572 220.72440674 -397.71630859 220.12841797 C-433.99564752 212.38037691 -433.99564752 212.38037691 -448 207 C-450.39572266 206.10667969 -450.39572266 206.10667969 -452.83984375 205.1953125 C-497 188.21825916 -497 188.21825916 -497 177 C-497.99 176.67 -498.98 176.34 -500 176 C-500 175.34 -500 174.68 -500 174 C-501.32 173.34 -502.64 172.68 -504 172 C-542.40915273 126.66460661 -504.88875901 102.00629488 -462 82 C-460.10121094 81.06994141 -460.10121094 81.06994141 -458.1640625 80.12109375 C-403.34888624 54.27965351 -337.60509745 41.25298958 -277.796875 34.52734375 C-252.73687314 31.6926097 -229.43226924 26.56865439 -205.5625 18.5 C-188.63996732 12.93642761 -171.39799873 8.77726462 -154 5 C-152.01097656 4.566875 -150.02195312 4.13375 -147.97265625 3.6875 C-133.12962948 0.64472706 -118.25897524 -1.31376928 -103.22436523 -3.12963867 C-83.63621735 -5.49907615 -64.14445759 -8.29271381 -44.73828125 -11.87109375 C-42.99426025 -12.19223145 -41.25023926 -12.51336914 -39.45336914 -12.84423828 C-36.07661361 -13.47259714 -32.70193017 -14.11223545 -29.32983398 -14.76513672 C-20.41730734 -16.43655448 21.96953076 -17.57562461 0 0 Z " fill="#797A99" transform="translate(542,1060)"/>
<path d="M0 0 C1.17863113 -0.00095673 2.35726227 -0.00191345 3.5716095 -0.00289917 C6.05856378 -0.00357753 8.54551986 -0.00174728 11.0324707 0.00244141 C14.8022875 0.00777045 18.57198387 0.00249704 22.34179688 -0.00390625 C24.76953151 -0.00324494 27.19726607 -0.00196269 29.625 0 C32.90280396 0.00169189 32.90280396 0.00169189 36.24682617 0.00341797 C59.39770312 0.47164788 76.89919337 13.79758844 44.67578125 17.39453125 C42.68281006 17.62269531 40.68983887 17.85085938 38.63647461 18.0859375 C35.42296265 18.44945312 35.42296265 18.44945312 32.14453125 18.8203125 C-29.01198366 25.07167276 -29.01198366 25.07167276 -87.35546875 43.1328125 C-89.76859375 44.16728516 -89.76859375 44.16728516 -92.23046875 45.22265625 C-110.59352768 53.25649453 -128.35758652 62.51135631 -145.35546875 73.1328125 C-147.65451172 74.53660156 -147.65451172 74.53660156 -150 75.96875 C-159.97443097 82.13245715 -169.33178144 88.64888136 -178.35546875 96.1328125 C-179.81984375 97.2878125 -181.28421875 98.4428125 -182.79296875 99.6328125 C-233.96153373 149.90368335 -121.87984357 154.36544368 -95.89550781 155.31103516 C-94.37538086 155.37597168 -92.85525391 155.4409082 -91.2890625 155.5078125 C-89.94900146 155.55679687 -88.60894043 155.60578125 -87.22827148 155.65625 C-80.53760943 156.47956037 -74.71869181 159.33718113 -68.6796875 162.20703125 C-67.44863281 162.788479 -66.21757813 163.36992676 -64.94921875 163.96899414 C-63.015625 164.88539673 -63.015625 164.88539673 -61.04296875 165.8203125 C-7.78140619 190.85260365 42.80758189 201.37837623 101.70703125 201.3203125 C102.93852905 201.31937592 104.17002686 201.31843933 105.43884277 201.31747437 C136.57142743 201.26633078 166.74758626 199.38292601 197.53979492 194.73193359 C226.16253552 190.55420175 254.35881911 189.65859781 283.01171875 193.93359375 C301.9270929 196.64128978 321.02250184 198.28938282 339.64453125 193.1328125 C341.15660156 192.71902344 342.66867187 192.30523438 344.2265625 191.87890625 C353.07190663 189.33283465 361.71004502 186.41452009 370.33203125 183.1953125 C412.9358459 167.50704906 456.71140899 163.68645599 501.65893555 161.75512695 C505.94274888 161.57092663 510.22626148 161.38069629 514.50976562 161.18945312 C528.13620948 160.58798564 541.76127648 160.05297195 555.39453125 159.6328125 C567.39720791 159.25558245 579.35807171 158.60490428 591.33203125 157.6953125 C593.06001953 157.57349609 594.78800781 157.45167969 596.56835938 157.32617188 C612.93130168 156.11386943 626.06917815 153.74835064 640.296875 145.109375 C643.11018659 143.44830655 645.97934115 141.88233379 648.859375 140.33984375 C654.53031476 137.196129 659.88511448 133.80486596 665.26953125 130.1953125 C667.01492188 129.03128906 668.7603125 127.86726563 670.55859375 126.66796875 C678.79720189 120.94144005 705.67635113 102.14554045 685.64453125 94.1328125 C684.46890625 93.6378125 683.29328125 93.1428125 682.08203125 92.6328125 C672.36452785 89.34802262 662.46414998 88.82984677 652.27734375 88.5390625 C650.39935593 88.4835321 650.39935593 88.4835321 648.48342896 88.42687988 C633.23291605 87.99708396 617.97792009 87.79050351 602.72314453 87.58056641 C560.84333429 86.99298766 521.50974151 84.69828326 481.64453125 70.1328125 C480.47535156 69.71257812 479.30617188 69.29234375 478.1015625 68.859375 C440.1076538 54.21230541 460.19146378 39.8200316 490.66015625 39.83203125 C492.71685043 39.8264772 494.77354462 39.82092316 496.89256287 39.81520081 C503.5599576 39.80339511 510.22713651 39.80969017 516.89453125 39.8203125 C520.28830551 39.82254822 520.28830551 39.82254822 523.75064087 39.8248291 C557.46689859 39.86496982 591.03685803 40.21423485 624.64453125 43.1328125 C626.26842773 43.27203125 627.89232422 43.41125 629.56542969 43.5546875 C657.29445022 46.07922636 683.77319095 52.40470933 710.22998047 61.02197266 C713.9269576 62.22469295 717.63148088 63.40256473 721.3359375 64.58203125 C748.64030966 73.36785722 796.47146942 92.25640772 765.64453125 146.1328125 C764.98453125 147.4528125 764.32453125 148.7728125 763.64453125 150.1328125 C762.04959555 151.91410532 760.39559402 153.64313516 758.70703125 155.3359375 C757.24136719 156.80546875 757.24136719 156.80546875 755.74609375 158.3046875 C754.72257812 159.32046875 753.6990625 160.33625 752.64453125 161.3828125 C751.62101562 162.4140625 750.5975 163.4453125 749.54296875 164.5078125 C741.89779679 172.1328125 741.89779679 172.1328125 739.64453125 172.1328125 C738.98453125 173.4528125 738.32453125 174.7728125 737.64453125 176.1328125 C735.00406127 178.16727297 732.33509903 180.16508383 729.64453125 182.1328125 C728.85820313 182.92429687 728.071875 183.71578125 727.26171875 184.53125 C724.52598151 187.25065448 721.67440819 189.51764497 718.58203125 191.8203125 C717.04869141 192.97080078 717.04869141 192.97080078 715.484375 194.14453125 C708.85539497 198.7857291 702.95406733 198.4307728 695.14453125 198.3828125 C693.94699219 198.39054687 692.74945312 198.39828125 691.515625 198.40625 C682.55462104 198.38740457 673.77302597 197.61361372 664.86669922 196.66308594 C656.07860953 195.77071891 647.27080358 195.20615788 638.45703125 194.6328125 C636.49145264 194.50463135 634.52587402 194.3764502 632.50073242 194.24438477 C529.40576759 182.56788158 529.40576759 182.56788158 428.64453125 195.1328125 C427.40574219 195.55433594 426.16695312 195.97585938 424.890625 196.41015625 C417.36471075 199.10812551 410.10138869 202.24653165 402.83203125 205.5703125 C350.00389566 229.55018212 294.65891099 229.51664722 237.8034668 225.20922852 C210.51954633 222.97996939 210.51954633 222.97996939 183.28393555 224.62133789 C179.06371752 225.2144389 174.91524439 225.36766693 170.65625 225.51953125 C159.16717867 226.05875222 147.85352564 227.43302995 136.45703125 228.9453125 C133.35047119 229.35015869 133.35047119 229.35015869 130.18115234 229.76318359 C115.95470053 231.63835138 101.79096181 233.72490943 87.64453125 236.1328125 C79.31703337 237.50558791 70.98439889 238.83741038 62.64453125 240.1328125 C61.27425781 240.36226562 59.90398437 240.59171875 58.4921875 240.828125 C48.45834109 242.29851322 38.39295757 242.40275656 28.26953125 242.5078125 C26.80652588 242.53391602 25.34352051 242.56001953 23.83618164 242.58691406 C6.226364 242.615056 -6.52324171 234.81136196 -20.73046875 225.1953125 C-44.36380307 209.25141024 -63.97923348 204.79028787 -92.25390625 204.97265625 C-94.43795074 204.97785782 -96.62199524 204.98305939 -98.8722229 204.98841858 C-104.64951005 205.00316083 -110.42668145 205.02601847 -116.20391846 205.05377197 C-124.32501483 205.09186223 -132.44613486 205.11958134 -140.56729126 205.14149475 C-144.87913938 205.15364212 -149.19097685 205.17113493 -153.5027771 205.19480896 C-169.03845599 205.24616402 -184.00222163 204.77164507 -199.33203125 202.09375 C-200.49408081 201.89225342 -201.65613037 201.69075684 -202.85339355 201.4831543 C-206.56440283 200.83542261 -210.27258951 200.17321229 -213.98046875 199.5078125 C-215.24936951 199.28216614 -216.51827026 199.05651978 -217.82562256 198.82403564 C-238.79837242 195.08676706 -348.35546875 169.56947112 -348.35546875 144.1328125 C-349.67546875 143.4728125 -350.99546875 142.8128125 -352.35546875 142.1328125 C-382.13048164 110.74833945 -327.67038451 94.50804126 -302.484375 85.6015625 C-297.01609082 83.65636396 -291.70624899 81.3801402 -286.35546875 79.1328125 C-272.96496008 73.74128884 -259.49444972 68.71230056 -245.83984375 64.03125 C-240.81945168 62.29342198 -235.83448551 60.48527497 -230.85546875 58.6328125 C-208.21608869 50.2443661 -185.28031827 42.69689082 -162.35546875 35.1328125 C-160.28136719 34.44703125 -158.20726562 33.76125 -156.0703125 33.0546875 C-144.45760783 29.28289461 -132.75569854 25.98988596 -120.94921875 22.87890625 C-116.71159107 21.75673826 -112.481507 20.60546044 -108.26171875 19.41796875 C-79.40960514 11.34450295 -49.96585607 5.61865141 -20.35546875 1.1328125 C-19.16638916 0.95177979 -17.97730957 0.77074707 -16.75219727 0.58422852 C-11.14967564 0.00901265 -5.63220688 0.00291468 0 0 Z " fill="#797A99" transform="translate(650.35546875,1077.8671875)"/>
<path d="M0 0 C-1.67578125 0.60199219 -3.3515625 1.20398437 -5.078125 1.82421875 C-9.51656734 3.34522543 -13.95857969 4.82521991 -18.421875 6.26953125 C-128.30202901 41.88452498 32.32995043 70.72532702 70.9375 63.875 C72.42894531 63.6171875 73.92039062 63.359375 75.45703125 63.09375 C87.28373191 60.88635293 98.82246066 57.82944122 110.390625 54.55859375 C126.57866908 50.39567788 141.43912701 49.47019124 158.1875 49.625 C161.41853516 49.63273437 161.41853516 49.63273437 164.71484375 49.640625 C177.58820817 49.70088651 190.4450593 49.9843738 203.3125 50.37109375 C220.52954539 50.88237468 237.73890286 51.12626716 254.96337891 51.17016602 C258.14864484 51.18185355 261.33388881 51.20255793 264.51904297 51.23168945 C269.23678232 51.27445636 273.95396584 51.29052329 278.671875 51.30078125 C280.07314636 51.31828934 281.47441772 51.33579742 282.91815186 51.35383606 C340.15428429 51.22925679 351.87869282 28.54369308 291.0234375 10.9296875 C252.40731399 -2.10759168 276.96835622 -11.53029294 304.25 -8.9375 C305.65499756 -8.80585449 307.05999512 -8.67420898 308.50756836 -8.53857422 C350.85927057 -4.38327751 391.12416747 4.83838525 431.6328125 17.59765625 C437.74353667 19.51697693 443.87760997 21.34503806 450.02246094 23.15161133 C462.14590111 26.72400832 474.16473237 30.53777631 486.125 34.625 C488.10173706 35.29668213 488.10173706 35.29668213 490.1184082 35.98193359 C502.50531115 40.26875871 533.82338301 55.65157303 504.1875 60.5625 C502.18429687 60.90861328 502.18429687 60.90861328 500.140625 61.26171875 C490.35278693 62.68986984 480.65203183 63.20037545 470.77734375 63.55859375 C467.53450474 63.6829306 464.29166622 63.80727999 461.04882812 63.93164062 C455.9994713 64.12131633 450.95006899 64.30971093 445.90063477 64.49731445 C428.66760961 65.14164338 411.44348912 65.82718948 394.23046875 66.890625 C392.95187485 66.96893051 391.67328094 67.04723602 390.35594177 67.12791443 C356.70915291 69.29864637 356.70915291 69.29864637 323.9375 76.875 C294.06434913 80.9642036 263.93609479 80.33650277 233.85357666 80.38031006 C227.83761234 80.39008065 221.82179253 80.40577122 215.80589294 80.43591309 C211.34244531 80.45707176 206.87891384 80.46591709 202.41542053 80.45959473 C173.15521059 80.6034172 146.99036418 86.14760408 119.38867188 95.20336914 C77.55661757 108.85017752 28.36603345 116.84784398 -8.0625 86.875 C-26.84705662 72.84602733 -49.65513397 68.91133485 -72.15795898 64.21289062 C-128.18578857 52.42651306 -203.61803742 12.73302522 -106.5 -11 C-105.12739014 -11.33805664 -103.75478027 -11.67611328 -102.34057617 -12.02441406 C-86.47024069 -15.85540055 82.87677556 -29.63607967 0 0 Z " fill="#797A99" transform="translate(697.0625,1144.125)"/>
</svg>
