<?xml version="1.0" encoding="UTF-8"?>
<svg version="1.1" xmlns="http://www.w3.org/2000/svg" width="1700" height="1700">
<path d="M0 0 C7.72886719 1.73899512 12.89357228 7.0788757 17.25 13.4375 C29.15775005 32.5542663 31.62453751 53.72302189 31.5 75.8125 C31.49757294 76.68907257 31.49514587 77.56564514 31.49264526 78.46878052 C31.4204555 91.93791843 30.47720486 104.20440894 26 117 C25.52530273 118.42844238 25.52530273 118.42844238 25.04101562 119.88574219 C19.50107038 136.50030177 12.72846428 152.61019856 5.84375 168.70263672 C-7.46063053 199.89055306 -17.62336427 232.25175654 -21.75 266.00732422 C-21.98419856 267.87405143 -22.26770185 269.73440638 -22.5546875 271.59375 C-23.26936728 277.39535213 -23.2234677 283.24150294 -23.24023438 289.07910156 C-23.24988085 291.10003791 -23.28095742 293.11992858 -23.3125 295.140625 C-23.36198189 307.78324702 -21.21167105 319.22569854 -16.3125 330.875 C-15.78378296 332.15685181 -15.78378296 332.15685181 -15.24438477 333.46459961 C-5.24647831 357.34242431 8.10774571 380.19836519 22 402 C22.42087891 402.66418945 22.84175781 403.32837891 23.27539062 404.01269531 C28.94801584 412.91375009 35.10241288 420.9983617 42 429 C43.67419719 430.99370047 45.34117793 432.99348882 47 435 C47.721875 435.86625 48.44375 436.7325 49.1875 437.625 C50.77358055 439.70331244 51.94235898 441.6203077 53 444 C53.66 444 54.32 444 55 444 C59 448.47058824 59 448.47058824 59 451 C59.66 451 60.32 451 61 451 C62.375 452.36328125 62.375 452.36328125 64 454.3125 C66.88858397 457.71647448 69.84793678 461.03082398 72.875 464.3125 C76.91279322 468.74496474 80.77307434 473.27742177 84.53515625 477.9453125 C86.34085175 480.1831158 88.15979312 482.40481899 89.99609375 484.6171875 C138.01854863 542.69391033 155.20030545 602.45120059 148.62109375 677.640625 C145.40771483 711.53085825 136.82018966 743.30226268 120.05175781 773.10351562 C119.14948648 774.73045241 118.29973066 776.38632 117.4609375 778.046875 C113.40189275 786.07001609 107.93950618 792.99392717 102.46777344 800.08691406 C100.38271212 802.80456884 98.35051427 805.559393 96.3125 808.3125 C86.98762005 820.71731293 86.98762005 820.71731293 83 825 C82.34 825 81.68 825 81 825 C80.62681641 825.86044922 80.62681641 825.86044922 80.24609375 826.73828125 C75.68284271 835.02079646 66.33198384 841.29851472 59 847 C58.25621094 847.59554687 57.51242187 848.19109375 56.74609375 848.8046875 C31.94176272 867.52656519 -1.18495165 873.62346699 -31.45800781 869.43164062 C-54.31056725 865.55118297 -72.75231576 851.82530082 -86.1875 833.3125 C-105.39466108 805.71932802 -114.36359589 773.76635918 -114.42553711 740.40966797 C-114.43739679 737.40118039 -114.48668817 734.39477387 -114.53710938 731.38671875 C-114.67129168 715.44504289 -112.41762141 700.24790935 -105.125 685.875 C-104.61247681 684.82977173 -104.61247681 684.82977173 -104.08959961 683.76342773 C-101.32631345 678.2925178 -98.10652806 673.56086733 -94 669 C-92.96746094 667.77410156 -92.96746094 667.77410156 -91.9140625 666.5234375 C-79.41761388 652.01001823 -62.39355115 641.04668107 -43 639 C-26.36846127 637.83188515 -12.16916428 640.63368411 3.1875 646.9375 C3.97769531 647.26105469 4.76789063 647.58460938 5.58203125 647.91796875 C10.72441883 650.14456956 16.37948768 652.75897536 19 658 C19.4375 660.875 19.4375 660.875 19 664 C13.85187444 668.51007265 7.92321084 669.43843616 1.375 670.875 C-11.15304912 673.83813963 -22.48659484 676.68949761 -30 688 C-40.3785887 705.25877672 -43.09828705 727.19234056 -38.82202148 746.81860352 C-36.0936775 757.49535739 -32.16184784 767.35027173 -23 774 C-8.79694047 781.47333761 3.61566597 780.51197532 18.6171875 776.2578125 C38.97060078 769.25089973 54.8659186 750.73784075 64.25 732.0625 C65.5415995 729.39302457 66.78300218 726.70421386 68 724 C68.52207031 722.84371094 69.04414062 721.68742188 69.58203125 720.49609375 C75.75514443 705.91842543 80.01166772 690.40149668 83.3125 674.9375 C83.45961426 674.25010742 83.60672852 673.56271484 83.75830078 672.85449219 C84.21635285 670.57548222 84.61572645 668.29264869 85 666 C85.17732666 664.98397705 85.35465332 663.9679541 85.53735352 662.92114258 C87.19680723 652.24140954 87.33887922 641.67526369 87.31567383 630.88647461 C87.31252298 627.83475664 87.3360271 624.78402026 87.36132812 621.73242188 C87.42347615 603.55848407 85.55342798 586.53612018 79.5625 569.3125 C79.24360809 568.37692764 79.24360809 568.37692764 78.91827393 567.42245483 C75.74703188 558.1501174 72.07961918 549.17144104 67.875 540.3125 C67.40908447 539.32870361 66.94316895 538.34490723 66.46313477 537.33129883 C60.99631017 526.29625421 53.79511653 517.30497683 45 508.75 C44.24460937 507.99976563 43.48921875 507.24953125 42.7109375 506.4765625 C39.22363567 503.03719609 35.69247451 499.69212384 31.98046875 496.49609375 C27.53023514 492.65656845 23.42962835 488.50321421 19.3125 484.3125 C15.0297206 479.95438587 10.83524389 475.7527266 6 472 C5.401875 471.236875 4.80375 470.47375 4.1875 469.6875 C2.25203427 467.3096421 0.38468972 465.53679613 -1.9375 463.5625 C-5.37075115 460.63506854 -8.10891372 457.46930354 -11 454 C-12.27453636 452.85562906 -13.56777536 451.7318837 -14.875 450.625 C-18.32411757 447.68519138 -21.23655872 444.54379911 -24.16015625 441.08984375 C-26.13761436 438.84368644 -28.22961266 436.77339653 -30.375 434.6875 C-35.33773503 429.77514806 -39.68083347 424.47921295 -44 419 C-44.804375 418.00097656 -45.60875 417.00195312 -46.4375 415.97265625 C-62.88089291 395.33781024 -76.99034518 369.60055806 -77.16113281 342.54003906 C-77.17074036 341.30054504 -77.1803479 340.06105103 -77.19024658 338.78399658 C-77.1951006 337.4445413 -77.19937793 336.10508383 -77.203125 334.765625 C-77.20736607 333.73515171 -77.20736607 333.73515171 -77.21169281 332.68386078 C-77.22664019 329.03744635 -77.23589376 325.39107091 -77.24023438 321.74462891 C-77.24459368 318.7695675 -77.2583915 315.79480024 -77.28125 312.81982422 C-77.40290988 296.65544833 -77.39564092 280.88632007 -74 265 C-73.77022461 263.82308594 -73.54044922 262.64617187 -73.30371094 261.43359375 C-72.66425725 258.23538355 -71.97191042 255.05552963 -71.25 251.875 C-70.99395996 250.74102783 -70.73791992 249.60705566 -70.47412109 248.4387207 C-61.34834336 208.7754173 -45.47388197 171.98755473 -29.57666016 134.65771484 C-20.51773776 113.43920772 -20.51773776 113.43920772 -12 92 C-11.71253906 91.25379395 -11.42507813 90.50758789 -11.12890625 89.73876953 C-2.54489431 67.10684405 0.32925723 39.94455978 -4 16 C-4.15818041 13.96180658 -4.26284442 11.91871911 -4.3125 9.875 C-4.36857422 8.35519531 -4.36857422 8.35519531 -4.42578125 6.8046875 C-3.89754242 3.32509595 -2.66704587 2.19886622 0 0 Z " fill="#797A99" transform="translate(829,160)"/>
<path d="M0 0 C14.07241026 -1.24657178 25.42012304 5.14910389 36 14 C48.23739614 25.56222946 57.42550087 40.42126315 58.10037613 57.54718781 C58.15268038 60.49427639 58.17438975 63.44016492 58.18603516 66.38769531 C58.20346253 68.70233245 58.22101605 71.01696864 58.23867798 73.331604 C58.24642872 74.5515229 58.25417946 75.7714418 58.26216507 77.02832794 C58.30363458 82.88672183 58.37022989 88.74481373 58.43467975 94.60299253 C58.53316006 103.56355284 58.62549491 112.52386509 58.67236328 121.48486328 C58.70762232 128.20554017 58.77922943 134.92514083 58.87043381 141.64528656 C58.8989916 144.17867266 58.91598741 146.71222191 58.92006302 149.24576569 C58.95856197 167.75265791 61.81293812 184.24994642 67 202 C67.48870808 203.72063708 67.97646529 205.44154472 68.46295166 207.16281128 C69.58401974 211.1068545 70.78220964 215.02217113 72 218.9375 C72.43339627 220.34715998 72.86649495 221.75691147 73.29931641 223.16674805 C76.08710287 232.21349555 78.97804829 241.22280582 82.03125 250.18359375 C83.65001876 254.93526809 85.21908657 259.70217453 86.78125 264.47265625 C100.08051133 306.97260664 100.08051133 306.97260664 123.7734375 344.25390625 C126 347 126 347 126 349 C126.66 349 127.32 349 128 349 C129.515625 350.57421875 129.515625 350.57421875 131.25 352.6875 C133.50075728 355.35349133 135.70049545 357.71010091 138.4375 359.875 C139.283125 360.57625 140.12875 361.2775 141 362 C141 362.66 141 363.32 141 364 C141.59296875 364.26425781 142.1859375 364.52851562 142.796875 364.80078125 C145.08029054 366.04370425 146.47426723 367.30401646 148.25 369.1875 C151.98676112 373.02631552 155.94148417 376.50691207 160 380 C161.25841018 381.09827388 162.51616313 382.19730105 163.7734375 383.296875 C165.14055248 384.48966646 166.50774066 385.68237402 167.875 386.875 C168.54208984 387.45910645 169.20917969 388.04321289 169.89648438 388.64501953 C170.52619141 389.19270996 171.15589844 389.74040039 171.8046875 390.3046875 C172.37171387 390.79952637 172.93874023 391.29436523 173.52294922 391.80419922 C175.00635438 393.09284997 175.00635438 393.09284997 177 394 C177 394.66 177 395.32 177 396 C177.53367187 396.23074219 178.06734375 396.46148438 178.6171875 396.69921875 C181.73200776 398.39960423 184.37910121 400.5860213 187.125 402.8125 C193.66937296 408.05991016 200.42790673 412.96291614 207.30908203 417.7590332 C208.05013184 418.28327881 208.79118164 418.80752441 209.5546875 419.34765625 C210.21968262 419.81179932 210.88467773 420.27594238 211.56982422 420.75415039 C212.04178223 421.16528076 212.51374023 421.57641113 213 422 C213 422.66 213 423.32 213 424 C213.59296875 424.27199219 214.1859375 424.54398438 214.796875 424.82421875 C225.44933781 430.50930972 231.72334545 443.77352726 235.2109375 454.7578125 C237.58442894 464.51027733 238.3450183 473.85209073 238.31567383 483.86181641 C238.31249522 486.12841136 238.33612375 488.39371983 238.36132812 490.66015625 C238.39526044 498.2325621 238.26438169 505.0125413 235 512 C232 514 232 514 229.5625 513.9375 C225.41150452 512.41884312 223.59467337 509.1427872 221.60302734 505.31542969 C221.1848877 504.36055664 220.76674805 503.40568359 220.3359375 502.421875 C219.85914551 501.35171143 219.38235352 500.28154785 218.89111328 499.17895508 C218.3907959 498.0473999 217.89047852 496.91584473 217.375 495.75 C204.33927157 467.07654992 189.96459236 448.19586718 160.74462891 435.44165039 C134.41316621 423.93749254 110.13842127 408.47170948 89 389 C88.40421143 388.46036621 87.80842285 387.92073242 87.19458008 387.36474609 C82.63699218 383.05929063 79.57633902 378.47235029 76.5625 373 C76.09005859 372.16041748 75.61761719 371.32083496 75.13085938 370.45581055 C73.74196732 367.9769586 72.37018334 365.48922657 71 363 C70.30123019 361.75625809 69.6020563 360.51274304 68.90234375 359.26953125 C60.63622506 344.24793979 53.59479501 328.46122432 47.28100586 312.52783203 C46.03074088 309.39050591 44.69518504 306.34675625 43.1484375 303.34765625 C35.71439542 288.73427161 29.58085879 272.74266964 25 257 C24.76474609 256.20335937 24.52949219 255.40671875 24.28710938 254.5859375 C9.27005955 203.03373609 9.96577747 148.50059171 16.59082031 95.70776367 C18.21080729 82.7861178 19.19248677 70.02674593 19.25 57 C19.270625 55.83210938 19.29125 54.66421875 19.3125 53.4609375 C19.37793962 38.70430324 16.35304514 26.29556195 6.13671875 15.41015625 C5 14 5 14 5 12 C4.34 12 3.68 12 3 12 C-1.09326923 5.67403846 -1.09326923 5.67403846 -0.62109375 2.26171875 C-0.41613281 1.51535156 -0.21117187 0.76898438 0 0 Z " fill="#797A99" transform="translate(657,306)"/>
<path d="M0 0 C3.67051965 1.32138707 5.04517508 2.87795274 6.890625 6.28125 C18.02772113 31.93886387 12.84025325 56.08042517 5.78152466 81.9468689 C-8.0122795 132.65106937 3.33263123 183.82646616 16.62768555 233.41517639 C18.92724735 242.04891871 20.80240397 250.76769648 22.58984375 259.51953125 C23.14972534 262.2453781 23.73021365 264.96635793 24.3125 267.6875 C24.68835335 269.47898785 25.06338794 271.27064771 25.4375 273.0625 C25.60934814 273.86163818 25.78119629 274.66077637 25.95825195 275.48413086 C28.35373189 287.23386614 28.35373189 287.23386614 26.0625 292.625 C24.125 294.125 24.125 294.125 20.9375 294.9375 C15.11365023 293.69635169 12.62194423 289.76434893 9.125 285.125 C6.76501473 281.2762785 4.74461153 277.29796163 2.75 273.25 C1.61793324 271.00743589 0.48511476 268.7652511 -0.6484375 266.5234375 C-1.19725586 265.42870117 -1.74607422 264.33396484 -2.31152344 263.20605469 C-4.04449031 259.79099505 -5.85688274 256.42657737 -7.6887207 253.06396484 C-21.76267781 227.09419753 -32.72424779 199.77384701 -39.875 171.125 C-40.04515625 170.44566406 -40.2153125 169.76632812 -40.390625 169.06640625 C-50.96983109 125.92878142 -42.87403774 83.08891908 -22.88012695 44.05786133 C-16.87208805 32.31975644 -11.63828284 20.43715926 -7.86474609 7.78564453 C-6.37720061 2.95630576 -5.52564503 0.24024544 0 0 Z " fill="#797A99" transform="translate(965.875,420.875)"/>
<path d="M0 0 C1.875 1.4375 1.875 1.4375 3 4 C3.57883759 10.11811319 2.63320181 15.59787773 0.953125 21.453125 C0.74169357 22.2278717 0.53026215 23.00261841 0.31242371 23.80084229 C-0.13602001 25.44292754 -0.5890563 27.08376472 -1.04641724 28.72338867 C-2.22888048 32.96969086 -3.37269438 37.2262443 -4.51171875 41.484375 C-4.73395615 42.31453125 -4.95619354 43.1446875 -5.18516541 44 C-7.63446363 53.2454105 -9.47484877 62.56132827 -11 72 C-11.26043091 73.33925537 -11.26043091 73.33925537 -11.52612305 74.70556641 C-12.09759408 78.6784825 -12.18105647 82.54632117 -12.203125 86.5546875 C-12.20882507 87.37389679 -12.21452515 88.19310608 -12.22039795 89.03713989 C-12.22981502 90.77018967 -12.23636879 92.50325708 -12.24023438 94.23632812 C-12.24984223 96.83236964 -12.28085532 99.42758468 -12.3125 102.0234375 C-12.41693951 117.94917742 -9.54509693 132.03647826 -4.9375 147.3125 C-0.65027363 161.60587674 1.47119125 174.6013882 1.5 189.5 C1.50267883 190.32381165 1.50535767 191.14762329 1.50811768 191.99639893 C1.49550786 210.10017567 -1.15326069 227.35146068 -5 245 C-5.34442139 246.58482178 -5.34442139 246.58482178 -5.69580078 248.20166016 C-7.26075078 255.19177017 -9.10995389 262.09194781 -11 269 C-11.3982266 270.48026298 -11.79563202 271.96074703 -12.19238281 273.44140625 C-40.30798964 378.30638479 -40.30798964 378.30638479 -63.9375 409.0625 C-64.45747559 409.74570312 -64.97745117 410.42890625 -65.51318359 411.1328125 C-66.53865427 412.47840365 -67.56623709 413.82238844 -68.59619141 415.16455078 C-69.82935514 416.77688556 -71.04682862 418.40119548 -72.26171875 420.02734375 C-73.18404297 421.25130859 -73.18404297 421.25130859 -74.125 422.5 C-74.64320313 423.1909375 -75.16140625 423.881875 -75.6953125 424.59375 C-76.34113281 425.28984375 -76.34113281 425.28984375 -77 426 C-77.66 426 -78.32 426 -79 426 C-79.23589844 426.55558594 -79.47179687 427.11117188 -79.71484375 427.68359375 C-81.3127752 430.56375591 -83.305005 432.66369076 -85.5625 435.0625 C-88.97355049 438.72382947 -92.20626958 442.44619374 -95.3125 446.375 C-100.28895317 452.54899538 -105.87080376 458.04067464 -111.5378418 463.57055664 C-114.74879794 466.70966971 -117.90585502 469.90065712 -121.04296875 473.11328125 C-122.09110033 474.17973223 -123.13927786 475.24613804 -124.1875 476.3125 C-124.72052734 476.86228516 -125.25355469 477.41207031 -125.80273438 477.97851562 C-127.16424956 479.35715678 -128.57840502 480.68339727 -130 482 C-130.66 482 -131.32 482 -132 482 C-132 482.66 -132 483.32 -132 484 C-134.01171875 485.65625 -134.01171875 485.65625 -136.6875 487.5 C-137.55761719 488.1084375 -138.42773438 488.716875 -139.32421875 489.34375 C-143.31302143 491.81273151 -146.58686637 493.28519097 -151.3125 493.125 C-152.529375 493.08375 -153.74625 493.0425 -155 493 C-156.49410456 490.10543847 -157.13185061 488.59105821 -156.41137695 485.36132812 C-152.82756979 477.15277395 -148.25289979 469.84905869 -143.1875 462.5 C-142.40981404 461.35614341 -141.63311787 460.21161325 -140.85742188 459.06640625 C-139.32599471 456.80789027 -137.78943373 454.55301166 -136.2487793 452.30078125 C-132.79226472 447.2272738 -129.39838916 442.11252849 -126 437 C-125.1634773 435.74952014 -124.32635817 434.49943875 -123.48828125 433.25 C-95.29632504 391.13921442 -70.36162511 348.92033802 -58.5 299.1875 C-58.30645935 298.38285309 -58.1129187 297.57820618 -57.91351318 296.74917603 C-51.37440631 269.51544629 -46.75363361 242.45928774 -44.8125 214.5 C-44.72846924 213.29633789 -44.64443848 212.09267578 -44.55786133 210.85253906 C-43.6683005 196.7849761 -43.89168561 182.87463852 -44.8125 168.8125 C-44.87677689 167.8005809 -44.87677689 167.8005809 -44.94235229 166.76821899 C-45.74338526 154.23919961 -46.942895 141.77242901 -48.31640625 129.29296875 C-48.54538373 127.19543369 -48.77331212 125.09778374 -49 123 C-49.15009521 121.61530518 -49.15009521 121.61530518 -49.30322266 120.20263672 C-50.96178643 103.68573227 -51.71551205 86.05053536 -47 70 C-46.80132324 69.30680664 -46.60264648 68.61361328 -46.39794922 67.89941406 C-39.90748087 45.64221249 -27.60090485 18.64524876 -10 3 C-9.0409375 2.1028125 -9.0409375 2.1028125 -8.0625 1.1875 C-5.17764094 -0.47347946 -3.26793515 -0.48671375 0 0 Z " fill="#797A99" transform="translate(1064,544)"/>
<path d="M0 0 C3.05017112 2.84682638 3.66371114 3.48428544 4.1875 7.5 C3.8125 10.625 3.8125 10.625 1.56884766 12.58276367 C0.65925293 13.25670166 -0.2503418 13.93063965 -1.1875 14.625 C-1.89471191 15.24802002 -2.60192383 15.87104004 -3.33056641 16.51293945 C-12.25808067 23.83111002 -22.68240691 26.50744636 -33.5625 29.8125 C-37.3433496 30.98647562 -41.12082513 32.17112535 -44.8984375 33.35546875 C-46.25824486 33.77816292 -46.25824486 33.77816292 -47.64552307 34.20939636 C-53.66633255 36.0951969 -59.52024835 38.21209969 -65.3828125 40.5456543 C-69.84755884 42.26385099 -74.40997973 43.59910543 -79 44.9375 C-87.05251564 47.3352895 -95.04075592 49.87156124 -103 52.5625 C-120.38277884 58.41209167 -137.84056424 64.00573237 -155.66235352 68.37158203 C-160.63885716 69.612019 -165.51617498 71.03781367 -170.3894043 72.6295166 C-183.3068931 76.83616774 -196.42650726 80.055995 -209.625 83.25 C-212.15206227 83.86643734 -214.67907965 84.48305869 -217.20605469 85.09985352 C-234.46453405 89.29916172 -251.76048629 93.32451285 -269.07641602 97.27941895 C-286.96493803 101.36927172 -304.80643467 105.6370065 -322.62739563 110.01027298 C-324.58826902 110.49099514 -326.54951101 110.97018396 -328.51086426 111.44894409 C-343.13325887 115.02370786 -357.67911337 118.75692623 -372.11830139 123.01597595 C-374.08978954 123.59624103 -376.06386099 124.16653014 -378.03930664 124.7331543 C-393.70472704 129.26086857 -410.65952603 135.62471172 -420.1875 149.625 C-422.94221673 155.31215711 -422.5838896 161.58310515 -421.1875 167.625 C-417.98845681 176.62479785 -413.01529717 181.69428476 -404.75 186.1875 C-394.89926447 190.80503228 -384.30287442 193.3664649 -373.79516602 196.01220703 C-341.9567024 204.04398164 -317.10734156 213.9559603 -292.19580078 235.40039062 C-281.85434725 244.25270025 -270.98030595 252.79410399 -259.1875 259.625 C-258.05183594 260.29144531 -256.91617187 260.95789062 -255.74609375 261.64453125 C-238.01942672 271.75262279 -218.9942851 275.37639805 -198.74438477 276.20581055 C-197.26103937 276.26781537 -197.26103937 276.26781537 -195.74772739 276.33107281 C-184.81299672 276.7418973 -173.88569755 276.69322445 -162.9454174 276.60846901 C-159.22838891 276.58121401 -155.51142505 276.56373677 -151.79432678 276.54899597 C-141.24419918 276.50684283 -130.69419939 276.45877656 -120.14428711 276.37817383 C-113.64029833 276.32918555 -107.13647583 276.30053277 -100.63232613 276.28442955 C-98.18593846 276.27465819 -95.7395667 276.25764713 -93.29328728 276.23264503 C-77.76788768 276.0773502 -63.34981046 277.27016931 -48.1875 280.625 C-46.44022652 280.99465782 -44.69261453 281.36271943 -42.94465637 281.72912598 C-38.22087683 282.72225592 -33.51511711 283.78646199 -28.8125 284.875 C-27.55838318 285.16429886 -27.55838318 285.16429886 -26.27893066 285.45944214 C-5.43680178 290.29887145 14.24076149 297.00644897 33.8125 305.625 C82.5890945 327.23032535 82.5890945 327.23032535 134.8125 336.625 C135.48522949 336.65899902 136.15795898 336.69299805 136.85107422 336.72802734 C174.35799096 338.33955681 215.43750725 330.04888334 250.34228516 316.57080078 C258.45248124 313.46555274 266.64081713 310.56347477 274.8125 307.625 C275.89112305 307.2345752 276.96974609 306.84415039 278.08105469 306.44189453 C303.21368122 297.37570435 303.21368122 297.37570435 315.8125 295.625 C317.65687653 295.36845894 317.65687653 295.36845894 319.53851318 295.10673523 C323.48488456 294.61795933 327.36527137 294.49172111 331.34472656 294.47973633 C332.05194351 294.47637772 332.75916046 294.4730191 333.48780823 294.46955872 C335.80959885 294.46012278 338.13131642 294.45810756 340.453125 294.45703125 C342.10097277 294.45380745 343.74882027 294.45044259 345.39666748 294.44694519 C348.85641132 294.44096771 352.31613027 294.43910325 355.77587891 294.43969727 C359.2645394 294.43977767 362.75306622 294.4329733 366.24169922 294.41918945 C391.92275878 294.31919099 417.18642383 295.17681661 442.71875 298.18359375 C463.62284332 300.54131117 484.91682707 301.00812477 505.25 295.0859375 C506.147117 294.82689636 507.04423401 294.56785522 507.96853638 294.30096436 C519.66330605 290.86342107 531.16820406 286.85284973 542.6875 282.875 C546.0403022 281.72164377 549.39362775 280.56984187 552.74758911 279.41986084 C554.81075644 278.71201544 556.87320202 278.0020615 558.93478394 277.28961182 C560.76589632 276.6597536 562.59934754 276.03663798 564.43548584 275.42158508 C566.38510246 274.76822948 568.32682357 274.09135777 570.26611328 273.40795898 C575.33902153 272.28797986 580.25819286 272.35997016 585.4375 272.39453125 C586.56438736 272.39449097 587.69127472 272.39445068 588.85231018 272.39440918 C592.50582708 272.39779533 596.15904387 272.41666025 599.8125 272.4375 C602.33715765 272.44636646 604.86181587 272.45507356 607.38647461 272.46362305 C632.99359812 272.57327689 658.3695888 273.408704 683.89013672 275.53173828 C742.99473231 280.41180386 801.47810883 281.03164426 855.03515625 252.56884766 C856.72463792 251.67165862 858.4245787 250.79424718 860.125 249.91796875 C879.70264623 239.67329358 897.53790253 227.02867791 914.27734375 212.65234375 C914.86507568 212.14952881 915.45280762 211.64671387 916.05834961 211.12866211 C917.20500663 210.14574484 918.34792535 209.15844517 919.48657227 208.16625977 C921.93033445 206.06700937 923.72223366 204.65508878 926.8125 203.625 C926.8125 202.965 926.8125 202.305 926.8125 201.625 C928.17797852 200.27636719 928.17797852 200.27636719 930.12890625 198.671875 C935.09490294 194.44558783 939.71188586 189.91170679 944.32104492 185.30175781 C945.73918284 183.88580053 947.16546665 182.47801711 948.59179688 181.0703125 C967.50753071 162.59908604 967.50753071 162.59908604 975.33178711 138.23217773 C975.32542236 137.49555908 975.31905762 136.75894043 975.3125 136 C975.30677979 135.22019775 975.30105957 134.44039551 975.29516602 133.63696289 C974.94865209 122.21133691 971.03374238 111.7419875 962.8125 103.625 C944.38688015 86.53580628 918.83436766 77.79232343 895.8125 68.625 C894.87383087 68.25087982 894.87383087 68.25087982 893.91619873 67.86920166 C880.08977884 62.37273504 866.155317 57.27344342 852 52.6875 C850.91050049 52.33397461 849.82100098 51.98044922 848.69848633 51.61621094 C835.52176673 47.44556575 822.22615437 44.32254545 808.6171875 41.97949219 C806.60274633 41.63194364 804.59042885 41.27375442 802.578125 40.9140625 C779.08554943 36.76948821 755.50350754 33.93261165 731.75 31.8125 C729.0179937 31.56376574 726.28621492 31.31257702 723.55444336 31.0612793 C717.73160775 30.52649365 711.90841802 29.99574655 706.08496094 29.46777344 C692.14458862 28.20317264 678.20623847 26.91665614 664.26858234 25.62249088 C660.21213469 25.24600619 656.15555799 24.87106483 652.09860229 24.50009155 C637.33314018 23.1498915 622.57236724 21.79294544 607.84765625 20.04296875 C606.88706802 19.92939529 605.9264798 19.81582184 604.93678284 19.69880676 C579.21728004 16.53449407 579.21728004 16.53449407 568.8125 11.625 C568.8125 9.975 568.8125 8.325 568.8125 6.625 C575.3196659 3.57476599 582.28414494 3.50189643 589.35595703 3.46386719 C590.06839569 3.45897876 590.78083435 3.45409033 591.51486206 3.44905376 C593.86668597 3.43469926 596.2184533 3.4278449 598.5703125 3.421875 C600.2499901 3.41494601 601.92966742 3.40795085 603.60934448 3.40089417 C609.05206498 3.38143647 614.4947489 3.3769596 619.9375 3.375 C621.33119812 3.37389536 621.33119812 3.37389536 622.75305176 3.3727684 C655.18661491 3.35180869 687.42613708 4.23238466 719.80322266 6.20605469 C726.77696289 6.62954302 733.75309108 6.99393109 740.73046875 7.3515625 C800.59758248 10.46581972 858.95645056 20.14464191 916.53417969 37.24072266 C925.75590639 39.96270919 935.07004618 42.33230761 944.375 44.75 C964.08226966 49.87653978 983.7356005 55.18677623 1003.36927795 60.58782959 C1008.49390693 61.99567775 1013.62413646 63.3784695 1018.76171875 64.73828125 C1032.20905727 68.31876623 1045.47253174 72.33646218 1058.6875 76.6875 C1059.43708984 76.93153564 1060.18667969 77.17557129 1060.95898438 77.42700195 C1075.48706947 82.17619835 1089.16333576 87.89105327 1101.8125 96.625 C1102.76125 97.264375 1103.71 97.90375 1104.6875 98.5625 C1118.26646528 108.00873672 1127.42063063 121.17569687 1131.18359375 137.375 C1134.24056496 155.42982856 1132.03033178 171.9821682 1121.5859375 187.23828125 C1119.12774326 190.54655588 1116.66287539 193.64204901 1113.8125 196.625 C1113.1525 196.625 1112.4925 196.625 1111.8125 196.625 C1111.4825 197.615 1111.1525 198.605 1110.8125 199.625 C1090.49129891 218.08342432 1063.8236192 227.43740334 1038.421875 236.58203125 C1031.0994092 239.22814273 1023.82212939 241.99575503 1016.54003906 244.75054932 C1014.13399176 245.66046339 1011.72717174 246.56831049 1009.3203125 247.47607422 C989.41176257 254.95505611 989.41176257 254.95505611 969.9921875 263.6015625 C969.32799805 263.92286133 968.66380859 264.24416016 967.97949219 264.57519531 C966.90683105 265.09484863 966.90683105 265.09484863 965.8125 265.625 C965.01489258 266.0075293 964.21728516 266.39005859 963.39550781 266.78417969 C939.74906841 278.16352425 917.37942304 291.70162713 895.484375 306.1328125 C894.56092285 306.73480469 893.6374707 307.33679687 892.68603516 307.95703125 C890.95447995 309.08658725 889.22921315 310.22590029 887.51318359 311.37890625 C870.78601956 322.25433389 852.06808954 329.09509034 833.25 335.375 C832.15244385 335.74418549 831.0548877 336.11337097 829.92407227 336.4937439 C802.88255796 345.55793726 776.31760822 350.60828562 747.99603271 353.40820312 C745.83102747 353.62316046 743.66671693 353.84423392 741.50244141 354.06640625 C724.64518505 355.78066493 707.81348179 356.89779696 690.875 357.375 C690.11046509 357.39823334 689.34593018 357.42146667 688.55822754 357.44540405 C669.84845684 357.98513817 651.44137253 356.68573375 632.875 354.4375 C631.01541319 354.21798764 629.15579316 353.99875655 627.29614258 353.77978516 C615.733581 352.40522651 604.19672385 350.87416308 592.66259766 349.28051758 C537.75894311 341.42021985 537.75894311 341.42021985 482.8125 345.625 C481.98121582 345.78597168 481.14993164 345.94694336 480.29345703 346.11279297 C452.40853608 351.62622178 424.86008704 359.24977226 397.43066406 366.64990234 C388.25969418 369.12148491 379.08065735 371.56291237 369.90080261 374.00125122 C365.59764481 375.14571977 361.29825276 376.30359763 357.00010681 377.46673584 C340.65887375 381.88314274 324.31556966 386.12745483 307.75 389.625 C307.08084564 389.76688751 306.41169128 389.90877502 305.72225952 390.05496216 C290.76081234 393.20631758 275.91851168 395.18088182 260.6875 396.3125 C259.79251801 396.37981323 258.89753601 396.44712646 257.97543335 396.51647949 C243.33172795 397.58152322 228.79922819 397.77186924 214.125 397.375 C213.19967468 397.35021576 212.27434937 397.32543152 211.32098389 397.29989624 C208.68886694 397.22434784 206.05736389 397.13908507 203.42578125 397.046875 C202.65463486 397.02061539 201.88348846 396.99435577 201.088974 396.96730042 C196.60302578 396.78515313 192.2578114 396.29011102 187.8125 395.625 C185.9262417 395.48007817 184.03789039 395.36017916 182.1484375 395.265625 C134.20100147 392.60422237 83.59571484 388.89172743 38.8125 370.625 C37.15268049 369.9613967 35.49252593 369.29863079 33.83203125 368.63671875 C23.77267328 364.59654818 13.80878343 360.34278011 3.85595703 356.04882812 C-17.46568432 346.83699667 -17.46568432 346.83699667 -39.1875 338.625 C-39.91018066 338.36992676 -40.63286133 338.11485352 -41.37744141 337.85205078 C-68.59769029 328.40354831 -96.76885352 322.99119512 -125.21514893 318.9095459 C-126.97615239 318.65549056 -128.73596963 318.39324381 -130.49560547 318.12988281 C-146.28189274 315.79486608 -162.15638089 314.95459751 -178.07138062 314.00405884 C-191.8763845 313.17397072 -205.6277001 312.14322712 -219.375 310.625 C-220.1037735 310.54718292 -220.832547 310.46936584 -221.58340454 310.38919067 C-234.92992373 308.94780244 -246.79856083 306.20931847 -259.0625 300.6875 C-260.13387207 300.21022461 -261.20524414 299.73294922 -262.30908203 299.24121094 C-277.19425688 292.49455092 -291.58048463 284.68343982 -305.1875 275.625 C-306.48700717 274.78448521 -307.7879132 273.94613113 -309.08984375 273.109375 C-315.4483642 269.02108185 -321.78875587 264.91002081 -328.06420898 260.69506836 C-331.09698857 258.65911793 -334.1413406 256.6408532 -337.1875 254.625 C-337.75452637 254.24682129 -338.32155273 253.86864258 -338.90576172 253.47900391 C-340.55254447 252.38799243 -342.21365824 251.31871093 -343.875 250.25 C-344.80699219 249.64414063 -345.73898437 249.03828125 -346.69921875 248.4140625 C-356.9071751 243.17862688 -368.1877518 241.17518651 -379.33065796 238.87683105 C-383.99871301 237.91252624 -388.66112002 236.92153733 -393.32421875 235.93359375 C-394.25238907 235.7374649 -395.18055939 235.54133606 -396.13685608 235.33926392 C-434.79681343 227.15380384 -434.79681343 227.15380384 -449.1875 221.625 C-449.95175293 221.34043945 -450.71600586 221.05587891 -451.50341797 220.76269531 C-468.97712466 214.23836683 -484.30612242 206.26210844 -498.1875 193.625 C-498.1875 192.965 -498.1875 192.305 -498.1875 191.625 C-499.1775 191.295 -500.1675 190.965 -501.1875 190.625 C-501.1875 189.965 -501.1875 189.305 -501.1875 188.625 C-502.05955078 188.26921875 -502.05955078 188.26921875 -502.94921875 187.90625 C-507.41330275 185.35089302 -510.13962927 180.67553475 -513.1875 176.625 C-513.82558594 175.80128906 -514.46367188 174.97757813 -515.12109375 174.12890625 C-521.73914979 165.23366963 -525.82403462 155.88035032 -524.1875 144.625 C-521.47463545 135.08425163 -514.80786814 128.63991983 -507 122.9375 C-506.31292969 122.43057617 -505.62585938 121.92365234 -504.91796875 121.40136719 C-492.36025901 112.2700218 -479.24455404 104.09910221 -465.15917969 97.54736328 C-463.21152704 96.63623999 -461.28212695 95.69278463 -459.3515625 94.74609375 C-406.25946739 69.35281824 -341.4009985 56.1120199 -283.1875 49.625 C-282.48689453 49.54620605 -281.78628906 49.46741211 -281.06445312 49.38623047 C-280.37802734 49.30904785 -279.69160156 49.23186523 -278.984375 49.15234375 C-254.76122206 46.42677283 -232.05831661 41.70102507 -208.97680664 33.87548828 C-191.3517538 27.93541456 -173.35454252 23.55418261 -155.1875 19.625 C-154.18219238 19.40457031 -153.17688477 19.18414063 -152.14111328 18.95703125 C-136.33422101 15.53932481 -120.44878182 13.43034037 -104.40966797 11.49536133 C-93.81327693 10.21560606 -83.240234 8.85264397 -72.6875 7.25 C-71.3871582 7.05253174 -70.08681641 6.85506348 -68.74707031 6.65161133 C-61.0344489 5.45905537 -53.34891111 4.13520886 -45.66796875 2.75390625 C-44.7705899 2.59331726 -43.87321106 2.43272827 -42.94863892 2.26727295 C-38.55777086 1.48024314 -34.16968572 0.6814832 -29.78515625 -0.14013672 C-6.49572933 -4.42720692 -6.49572933 -4.42720692 0 0 Z " fill="#797A99" transform="translate(543.1875,1045.375)"/>
<path d="M0 0 C1.17863113 -0.00095673 2.35726227 -0.00191345 3.5716095 -0.00289917 C6.05856378 -0.00357753 8.54551986 -0.00174728 11.0324707 0.00244141 C14.8022875 0.00777045 18.57198387 0.00249704 22.34179688 -0.00390625 C24.76953151 -0.00324494 27.19726607 -0.00196269 29.625 0 C31.29129707 -0.00303635 31.29129707 -0.00303635 32.99125671 -0.00613403 C57.42714834 0.06556208 57.42714834 0.06556208 63.64453125 5.1328125 C65.14453125 7.8828125 65.14453125 7.8828125 65.64453125 10.1328125 C60.34680628 16.49008247 52.4086949 16.5544659 44.67578125 17.39453125 C42.66264823 17.62473076 40.64954743 17.85521217 38.63647461 18.0859375 C37.57911102 18.20517578 36.52174744 18.32441406 35.43234253 18.44726562 C-27.41110173 24.66229244 -27.41110173 24.66229244 -87.35546875 43.1328125 C-88.98024885 43.82993982 -90.60525036 44.52655133 -92.23046875 45.22265625 C-109.88019501 52.88405111 -127.1022284 61.70876865 -143.41552734 71.92285156 C-145.60148437 73.28625491 -147.80075977 74.62688629 -150 75.96875 C-159.98695693 82.11158044 -169.33259418 88.64955542 -178.35546875 96.1328125 C-179.144375 96.74511719 -179.93328125 97.35742188 -180.74609375 97.98828125 C-186.91596901 102.94537568 -191.83913221 109.58380288 -194.35546875 117.1328125 C-194.86712055 123.4005471 -195.04366147 128.79129201 -191.35546875 134.1328125 C-189.02213542 136.79947917 -189.02213542 136.79947917 -186.35546875 139.1328125 C-185.61296875 139.8134375 -184.87046875 140.4940625 -184.10546875 141.1953125 C-164.49827559 155.00947132 -134.16568047 153.56060855 -111.0546875 154.65625 C-109.76828873 154.71820053 -109.76828873 154.71820053 -108.4559021 154.78140259 C-104.26963364 154.97987218 -100.08376677 155.16023924 -95.89550781 155.31103516 C-94.36001571 155.3763854 -92.82453342 155.4419666 -91.2890625 155.5078125 C-90.6039006 155.52653412 -89.91873871 155.54525574 -89.21281433 155.56454468 C-81.64360161 155.91431646 -75.43014038 158.99908718 -68.6796875 162.20703125 C-67.43625194 162.79446658 -66.19276025 163.38178311 -64.94921875 163.96899414 C-64.31113281 164.27161163 -63.67304687 164.57422913 -63.015625 164.88601685 C-46.42507487 172.74368535 -29.78694481 180.30235315 -12.35546875 186.1328125 C-11.19917969 186.52984375 -10.04289062 186.926875 -8.8515625 187.3359375 C27.34357184 199.26259282 63.91213561 201.35757113 101.70703125 201.3203125 C102.93852905 201.31937592 104.17002686 201.31843933 105.43884277 201.31747437 C135.88333936 201.26746115 165.3911865 199.60349933 195.49546814 195.03956604 C223.69866039 190.79551998 251.95874005 189.29487182 280.24902344 193.52197266 C300.05445837 196.47283544 320.08800282 198.54815214 339.64453125 193.1328125 C340.37494629 192.93413574 341.10536133 192.73545898 341.85791016 192.53076172 C351.52312081 189.87088618 360.94521928 186.70534736 370.33203125 183.1953125 C398.2865394 172.81850402 428.10442367 166.16123453 457.875 164.10546875 C459.0230864 164.02353775 460.17117279 163.94160675 461.35404968 163.85719299 C475.4934341 162.88534605 489.64975253 162.26934832 503.80847168 161.66308594 C506.66439235 161.5397691 509.52011848 161.41224763 512.37585068 161.28465176 C526.71480399 160.64495956 541.05188342 160.07486848 555.3984375 159.6328125 C566.54187502 159.28264576 577.64911113 158.73467619 588.765625 157.88549805 C591.33666605 157.69021324 593.90842957 157.50779267 596.48046875 157.32617188 C613.14133976 156.11281421 625.80944134 153.79721128 640.26171875 145.109375 C643.1014069 143.45015767 645.96305092 141.88849797 648.86328125 140.33984375 C654.54451049 137.25429048 659.91211149 133.80799393 665.26953125 130.1953125 C666.14609375 129.61330078 667.02265625 129.03128906 667.92578125 128.43164062 C679.02680041 121.1069166 679.02680041 121.1069166 688.64453125 112.0078125 C689.20140625 111.38648438 689.75828125 110.76515625 690.33203125 110.125 C692.73708017 106.47447932 692.7395432 103.69338302 692.01953125 99.4453125 C691.02407674 96.00524797 691.02407674 96.00524797 688.38671875 95.0546875 C687.48179688 94.75046875 686.576875 94.44625 685.64453125 94.1328125 C684.36835938 93.62041016 684.36835938 93.62041016 683.06640625 93.09765625 C682.1846875 92.75863281 681.30296875 92.41960937 680.39453125 92.0703125 C679.523125 91.72871094 678.65171875 91.38710937 677.75390625 91.03515625 C669.62902014 88.67730614 660.86329316 88.86481497 652.46484375 88.6015625 C650.56655319 88.53926453 650.56655319 88.53926453 648.62991333 88.47570801 C633.33091758 87.99620361 618.02775108 87.79118929 602.72314453 87.58056641 C589.12395318 87.38976812 575.53015265 87.15033829 561.9375 86.67578125 C560.85350922 86.64000977 559.76951843 86.60423828 558.65267944 86.56738281 C532.30785283 85.57602858 506.3217011 79.19060148 481.64453125 70.1328125 C480.47535156 69.71257812 479.30617188 69.29234375 478.1015625 68.859375 C469.35322108 65.48679318 458.91808782 60.91890742 454.64453125 52.1328125 C454.15120154 48.67950453 454.19357393 46.90588219 455.95703125 43.8828125 C465.33270015 37.77772578 479.91401828 39.82526421 490.66015625 39.83203125 C492.73762646 39.82693981 494.81509543 39.82131812 496.89256287 39.81520081 C502.42000137 39.80290136 507.94731652 39.80600013 513.47475815 39.81495667 C516.90005351 39.82032115 520.3253421 39.82274225 523.75064087 39.8248291 C557.45584982 39.85687895 591.04535303 40.1932239 624.64453125 43.1328125 C625.46852417 43.20306641 626.29251709 43.27332031 627.14147949 43.34570312 C655.66595609 45.80498217 683.03209549 52.1633265 710.22998047 61.02197266 C713.27105246 62.01131039 716.3168897 62.98446753 719.36447144 63.95352173 C765.43943807 78.64236459 765.43943807 78.64236459 774.62109375 94.82421875 C779.39277778 105.58782662 782.80524192 117.33564073 778.6953125 128.73046875 C775.9768552 134.94552911 772.28255309 141.16350339 767.64453125 146.1328125 C766.98453125 146.1328125 766.32453125 146.1328125 765.64453125 146.1328125 C765.41636719 146.68549805 765.18820312 147.23818359 764.953125 147.80761719 C763.26607607 150.80527653 761.13640607 152.9004631 758.70703125 155.3359375 C758.2262915 155.8185907 757.74555176 156.3012439 757.25024414 156.79852295 C756.23732032 157.81280314 755.22188487 158.82458054 754.20410156 159.83398438 C752.6427996 161.38453222 751.09250628 162.94551753 749.54296875 164.5078125 C748.55663064 165.49282984 747.56967275 166.47722703 746.58203125 167.4609375 C745.23431641 168.80526855 745.23431641 168.80526855 743.859375 170.17675781 C741.64453125 172.1328125 741.64453125 172.1328125 739.64453125 172.1328125 C739.39316406 172.73222656 739.14179687 173.33164063 738.8828125 173.94921875 C737.47802316 176.42643403 736.16147777 177.46241538 733.83203125 179.0703125 C731.3959377 180.76191324 729.36069586 182.41850911 727.26171875 184.53125 C724.52598151 187.25065448 721.67440819 189.51764497 718.58203125 191.8203125 C717.04869141 192.97080078 717.04869141 192.97080078 715.484375 194.14453125 C710.94240252 197.32453674 708.22118506 198.38657788 702.61328125 198.3984375 C701.40800781 198.40101563 700.20273438 198.40359375 698.9609375 198.40625 C697.70152344 198.39851563 696.44210937 198.39078125 695.14453125 198.3828125 C693.94699219 198.39054687 692.74945312 198.39828125 691.515625 198.40625 C683.41279031 198.38920934 675.49925161 197.7991195 667.44975281 196.93817139 C657.80239995 195.91076475 648.13747762 195.25969506 638.45703125 194.6328125 C637.4856723 194.56933624 636.51431335 194.50585999 635.51351929 194.44046021 C530.79252239 182.52598537 530.79252239 182.52598537 428.64453125 195.1328125 C427.40574219 195.55433594 426.16695312 195.97585938 424.890625 196.41015625 C417.35552334 199.06965939 410.0935672 202.24435406 402.83203125 205.5703125 C351.06016685 229.1697979 296.4016145 229.65308549 240.58798218 225.41995239 C227.63228303 224.43950345 214.76433145 223.84256158 201.76953125 223.8828125 C201.03778687 223.88385986 200.30604248 223.88490723 199.55212402 223.88598633 C191.39499319 223.86933558 191.39499319 223.86933558 183.28393555 224.62133789 C179.06386546 225.21441811 174.91027918 225.36847594 170.65625 225.51953125 C159.16898624 226.01760569 147.84781816 227.43091446 136.45703125 228.9453125 C134.36509836 229.21814132 132.27313846 229.4907632 130.18115234 229.76318359 C116.89886826 231.50593877 103.65652321 233.40349006 90.45019531 235.65625 C82.09483778 237.0754684 73.72666608 238.41591345 65.35107422 239.70996094 C63.71598036 239.9654167 62.08183333 240.22720054 60.44970703 240.50097656 C50.53597486 242.15779885 40.59440535 242.38219706 30.56784058 242.48327637 C29.05582097 242.49941828 27.54385094 242.52147115 26.03201294 242.54992676 C16.8998113 242.70375257 9.03066618 242.17443128 0.64453125 238.1328125 C0.01305176 237.83004395 -0.61842773 237.52727539 -1.26904297 237.21533203 C-2.91227994 236.37076595 -4.5104398 235.44022992 -6.10546875 234.5078125 C-6.68635254 234.16935303 -7.26723633 233.83089355 -7.86572266 233.48217773 C-12.26442809 230.88048288 -16.50247075 228.06351891 -20.73046875 225.1953125 C-44.22344797 209.2755664 -64.0415924 204.78995869 -92.25390625 204.97265625 C-94.4600091 204.9789438 -96.66611517 204.98417815 -98.8722229 204.98841858 C-104.64950873 205.00163705 -110.42668613 205.02601849 -116.20391846 205.05377197 C-125.43997632 205.09709172 -134.67606079 205.1268447 -143.91218948 205.1498127 C-147.10909524 205.15989662 -150.30590659 205.17695975 -153.5027771 205.19480896 C-168.9875058 205.26086117 -184.04392841 204.83004332 -199.33203125 202.09375 C-200.49408081 201.89225342 -201.65613037 201.69075684 -202.85339355 201.4831543 C-206.56440283 200.83542261 -210.27258951 200.17321229 -213.98046875 199.5078125 C-215.24936951 199.28216614 -216.51827026 199.05651978 -217.82562256 198.82403564 C-261.71994901 191.00222456 -302.34553254 181.66898386 -338.35546875 154.1328125 C-339.825 153.01132813 -339.825 153.01132813 -341.32421875 151.8671875 C-342.15953125 151.21234375 -342.99484375 150.5575 -343.85546875 149.8828125 C-344.71140625 149.21765625 -345.56734375 148.5525 -346.44921875 147.8671875 C-347.07828125 147.29484375 -347.70734375 146.7225 -348.35546875 146.1328125 C-348.35546875 145.4728125 -348.35546875 144.8128125 -348.35546875 144.1328125 C-348.92007812 143.90335938 -349.4846875 143.67390625 -350.06640625 143.4375 C-352.96391512 141.78601883 -354.76968408 139.74956646 -356.98046875 137.2578125 C-357.75648438 136.39414063 -358.5325 135.53046875 -359.33203125 134.640625 C-362.48520133 130.73264201 -364.09971822 127.51172756 -363.8984375 122.3359375 C-362.09636144 115.02391665 -354.86549942 110.45688688 -348.79296875 106.7578125 C-333.38784182 97.79904122 -317.1010449 90.73830615 -300.31689453 84.83984375 C-297.70774951 83.89933043 -295.15686375 82.84444979 -292.60546875 81.7578125 C-278.17338273 75.63571759 -263.52958374 70.09547893 -248.7019043 65.01245117 C-242.72257931 62.96255719 -236.77816534 60.84075573 -230.85546875 58.6328125 C-208.87205815 50.47148568 -186.59629474 43.12969591 -164.32989502 35.78442383 C-162.55663571 35.19920276 -160.78389928 34.61239791 -159.01123047 34.02539062 C-145.33920355 29.51269105 -131.5404563 25.6617446 -117.6171875 22.00341797 C-114.49034315 21.16881266 -111.37531015 20.30058934 -108.26171875 19.41796875 C-79.47094828 11.3136614 -49.94813274 5.442997 -20.35546875 1.1328125 C-19.16638916 0.95177979 -17.97730957 0.77074707 -16.75219727 0.58422852 C-11.18259777 -0.09548199 -5.60294735 -0.01011758 0 0 Z " fill="#797A99" transform="translate(650.35546875,1077.8671875)"/>
<path d="M0 0 C2.2994984 3.61349748 2.50149268 5.54164098 1.75 9.75 C-0.4375 12.4375 -0.4375 12.4375 -3.25 14.75 C-3.96929688 15.39324219 -4.68859375 16.03648438 -5.4296875 16.69921875 C-8.80997232 19.15718209 -12.28099414 20.5080385 -16.1875 21.875 C-16.9916333 22.16576416 -17.7957666 22.45652832 -18.62426758 22.75610352 C-23.9223186 24.64780987 -29.25716361 26.41256887 -34.609375 28.14453125 C-58.61122814 35.22922906 -58.61122814 35.22922906 -79.25 48.75 C-79.75265692 51.96160696 -79.75265692 51.96160696 -79.25 54.75 C-42.7935998 76.22181465 12.56715854 93.33074238 54.75 85.75 C55.47912598 85.62496094 56.20825195 85.49992187 56.95947266 85.37109375 C68.52926503 83.35597878 79.82287024 80.51732181 91.11474609 77.30004883 C94.31609926 76.40189844 97.52526137 75.56019553 100.75 74.75 C101.89500977 74.4617334 103.04001953 74.1734668 104.21972656 73.87646484 C116.75598835 71.11548299 129.21756046 71.38169543 142 71.5 C144.17577778 71.50649971 146.35155978 71.51171231 148.52734375 71.515625 C161.40030592 71.56236256 174.2589029 71.85931815 187.125 72.24609375 C204.34184624 72.76077623 221.5515387 73.00183943 238.77587891 73.04516602 C241.96128602 73.05417064 245.14627729 73.07546215 248.33154297 73.10668945 C252.29591318 73.14550086 256.25991142 73.1639582 260.22446442 73.16844749 C261.69613692 73.1732233 263.16780749 73.18456735 264.63936615 73.20348549 C278.34170878 73.36958532 291.35263679 71.12619451 303.6875 64.875 C304.39132812 64.52840332 305.09515625 64.18180664 305.8203125 63.82470703 C313.79173759 60.03618303 313.79173759 60.03618303 320.75 54.75 C321.95794918 51.54712143 321.95794918 51.54712143 321.75 48.75 C307.43106234 42.9043306 292.80564446 37.95211094 277.93481445 33.71630859 C257.02524308 27.56517494 257.02524308 27.56517494 251.75 19.75 C251.6875 16.5625 251.6875 16.5625 252.75 13.75 C260.60180351 8.07865792 279.08792825 12.08457462 288.0625 12.9375 C288.75544159 13.0021344 289.44838318 13.0667688 290.162323 13.13336182 C333.25534521 17.18881716 374.16029702 26.46884681 415.4453125 39.47265625 C421.55603667 41.39197693 427.69010997 43.22003806 433.83496094 45.02661133 C445.96116644 48.59982318 457.97716089 52.4102716 469.9375 56.5 C470.93929794 56.83991974 470.93929794 56.83991974 471.96133423 57.18670654 C496.02758806 65.37622089 496.02758806 65.37622089 500.75 70.75 C501.375 73.75 501.375 73.75 500.75 76.75 C496.95267736 80.59785736 493.18955193 81.63646121 488 82.4375 C487.33484375 82.55416016 486.6696875 82.67082031 485.984375 82.79101562 C476.31687628 84.43634954 466.67320333 84.99552478 456.88682365 85.3501873 C454.52903568 85.43580177 452.17144524 85.52574717 449.81385803 85.61671448 C443.93935298 85.8425878 438.06461345 86.06206106 432.18981934 86.28027344 C414.13139763 86.95137847 396.08013935 87.64711257 378.04296875 88.765625 C376.76437485 88.84393051 375.48578094 88.92223602 374.16844177 89.00291443 C340.50359596 91.17221965 340.50359596 91.17221965 307.75 98.75 C288.61845464 101.76912199 269.19822436 102.04316842 249.87890625 102.15625 C248.72939861 102.16300751 247.57989098 102.16976501 246.39554977 102.17672729 C236.81909885 102.22671278 227.24263415 102.24136432 217.66607666 102.25531006 C210.48112844 102.26697921 203.29640788 102.29089257 196.1115551 102.33000183 C192.81690178 102.34324554 189.52258831 102.33946684 186.22792053 102.33459473 C157.75720966 102.40796605 132.11491732 107.59087201 105.21948242 116.41629028 C71.03487724 127.63007717 28.18877081 137.28016092 -6.08984375 121.4375 C-11.85994123 118.45938517 -16.79376167 114.89423326 -21.7890625 110.765625 C-24.20689005 108.7853091 -26.65797945 106.89779882 -29.1875 105.0625 C-29.89777344 104.54300781 -30.60804688 104.02351563 -31.33984375 103.48828125 C-39.48217016 98.624744 -48.04532607 95.67558555 -57.1875 93.3125 C-58.3101123 93.01593506 -59.43272461 92.71937012 -60.58935547 92.41381836 C-69.78611804 90.02892974 -79.04694794 88.02935955 -88.34545898 86.08789062 C-158.95643523 71.23370775 -158.95643523 71.23370775 -173.25 54.75 C-175.58201996 50.8504302 -175.89101973 47.20468143 -175.25 42.75 C-171.90717603 32.24112224 -163.43674295 26.95191224 -154.3359375 21.7421875 C-144.30223279 16.60549648 -133.59120482 13.53957095 -122.6875 10.875 C-122.01069183 10.70802612 -121.33388367 10.54105225 -120.63656616 10.36901855 C-94.13373891 3.85253986 -67.34258359 -0.98320564 -40.25 -4.25 C-39.41944092 -4.353125 -38.58888184 -4.45625 -37.7331543 -4.5625 C-25.45887671 -6.02450052 -10.6500934 -7.37314158 0 0 Z " fill="#797A99" transform="translate(713.25,1122.25)"/>
</svg>
