<?xml version="1.0" encoding="UTF-8"?>
<svg version="1.1" xmlns="http://www.w3.org/2000/svg" width="1700" height="1700">
<path d="M0 0 C-25.97478013 8.38661171 -51.86194375 16.99329016 -77.65576172 25.92114258 C-78.51927246 26.18217773 -79.3827832 26.44321289 -80.27246094 26.7121582 C-99.08198742 32.40009127 -117.88088708 38.11965465 -136.65576172 43.92114258 C-159.44263058 50.47023217 -182.39092087 57.0419774 -205.50292969 62.3449707 C-216.29539898 64.82343328 -227.08604886 67.30870858 -237.86279297 69.85473633 C-238.55579498 70.01845734 -239.248797 70.18217834 -239.96279907 70.3508606 C-241.37742617 70.68513871 -242.79204813 71.01943855 -244.20666504 71.35375977 C-260.99884042 75.32179024 -277.81922657 79.14472348 -294.65576172 82.92114258 C-334.52386792 93.11996044 -455.44247842 128.02778423 -395.65576172 157.92114258 C-393.67576172 159.24114258 -391.69576172 160.56114258 -389.65576172 161.92114258 C-363.34603021 171.07453558 -363.34603021 171.07453558 -338.65576172 176.92114258 C-311.13302798 186.09538716 -291.81754072 198.16886804 -269.65576172 216.92114258 C-204.77150187 266.83211169 -146.78653473 251.92114258 -61.65576172 251.92114258 C-11.29886708 257.84548312 32.36601874 273.63663396 78.34423828 293.92114258 C152.80975286 318.74298077 212.59423564 312.89528151 286.34423828 284.92114258 C346.76744672 264.7800731 405.37074952 268.6237937 468.34423828 274.92114258 C501.45841938 275.14664323 501.45841938 275.14664323 532.27001953 267.61254883 C590.45743223 248.21674459 645.79924459 247.36225416 707.34423828 251.92114258 C795.56424944 255.93114309 864.50537687 246.16489109 932.37939453 187.28833008 C933.72183343 186.12425718 935.06428186 184.96019527 936.40673828 183.79614258 C937.3919043 182.94149414 937.3919043 182.94149414 938.39697266 182.06958008 C942.7002236 178.33868271 947.01679144 174.62395145 951.34423828 170.92114258 C954.80923828 166.96114258 954.80923828 166.96114258 958.34423828 162.92114258 C963.95423828 157.31114258 969.56423828 151.70114258 975.34423828 145.92114258 C991.24827663 125.24589272 999.10150705 104.4298651 980.34423828 81.92114258 C980.34423828 81.26114258 980.34423828 80.60114258 980.34423828 79.92114258 C979.02423828 79.26114258 977.70423828 78.60114258 976.34423828 77.92114258 C971.39423828 73.96114258 971.39423828 73.96114258 966.34423828 69.92114258 C946.68072457 59.67321381 946.68072457 59.67321381 926.34423828 50.92114258 C922.71423828 49.27114258 919.08423828 47.62114258 915.34423828 45.92114258 C832.41462862 15.18585846 746.90929327 7.8466751 659.75588989 -0.32537079 C657.73040349 -0.51531041 655.70492273 -0.70531006 653.67944336 -0.89532471 C649.9297042 -1.24704524 646.17994413 -1.59854191 642.43017578 -1.94995117 C641.35677948 -2.05064407 640.28338318 -2.15133698 639.17745972 -2.25508118 C632.56737134 -2.87414005 625.95622432 -3.48039681 619.34423828 -4.07885742 C487.70007537 -26.01955124 813.83912344 -12.39199678 832.34423828 -10.07885742 C875.20241865 -1.50722135 917.05967609 8.61898286 959.13949585 19.98254395 C966.4590103 21.95706073 973.78842457 23.8929591 981.11990356 25.82247925 C1031.81923129 39.16824568 1031.81923129 39.16824568 1053.76611328 45.74145508 C1054.64251465 46.0035376 1055.51891602 46.26562012 1056.421875 46.53564453 C1207.78163072 91.88766737 1152.11879913 176.60967808 1030.34423828 221.92114258 C997.11396272 234.87387269 997.11396272 234.87387269 965.17114258 250.62084961 C958.90340814 254.06910108 952.62451522 257.49553697 946.34423828 260.92114258 C932.91341652 269.09642539 919.54505332 277.37943873 906.34423828 285.92114258 C808.47698472 341.84528747 697.41965918 337.3311987 589.34423828 322.92114258 C526.84017363 317.23895488 473.14608527 327.00653788 414.21777344 342.88110352 C407.11956167 344.78994664 400.01266787 346.66628218 392.90673828 348.54614258 C392.19179199 348.735383 391.4768457 348.92462341 390.74023438 349.11959839 C260.99345571 383.45835362 131.59224609 380.17028878 7.34423828 326.92114258 C-55.89543568 302.44126879 -116.03918485 293.33091933 -183.65576172 288.92114258 C-239.43367138 282.72359706 -275.16147408 261.43301884 -321.65576172 230.92114258 C-346.98795653 216.01985151 -374.06657195 212.63898053 -402.65576172 206.92114258 C-471.65576172 187.88665982 -471.65576172 187.88665982 -471.65576172 176.92114258 C-473.30576172 176.26114258 -474.95576172 175.60114258 -476.65576172 174.92114258 C-480.12076172 171.45614258 -480.12076172 171.45614258 -483.65576172 167.92114258 C-484.31576172 167.59114258 -484.97576172 167.26114258 -485.65576172 166.92114258 C-485.65576172 166.26114258 -485.65576172 165.60114258 -485.65576172 164.92114258 C-486.31576172 164.92114258 -486.97576172 164.92114258 -487.65576172 164.92114258 C-489.07277761 163.19226208 -490.48935858 161.46302512 -491.90576172 159.73364258 C-492.69466797 158.77071289 -493.48357422 157.8077832 -494.29638672 156.81567383 C-567.97156579 66.42940282 -285.39905002 27.57033717 -246.65576172 22.92114258 C-225.83864061 19.13621147 -206.45901416 13.69540974 -186.28076172 7.67114258 C-184.08026275 7.01481928 -181.87974208 6.35856871 -179.67919922 5.70239258 C-174.33776246 4.10961475 -168.99677362 2.51534725 -163.65576172 0.92114258 C-135.31999543 -5.69053622 -107.53504934 -10.61334291 -78.65576172 -14.07885742 C-70.26019558 -15.27822401 89.74288493 -28.95121978 0 0 Z " fill="#797A99" transform="translate(527.65576171875,1070.078857421875)"/>
</svg>
